<?xml version="1.0" encoding="utf-8"?>
<!-- Generator: Adobe Illustrator 16.0.3, SVG Export Plug-In . SVG Version: 6.00 Build 0)  -->
<!DOCTYPE svg PUBLIC "-//W3C//DTD SVG 1.1//EN" "http://www.w3.org/Graphics/SVG/1.1/DTD/svg11.dtd">
<svg version="1.1" id="Layer_1" xmlns="http://www.w3.org/2000/svg" xmlns:xlink="http://www.w3.org/1999/xlink" x="0px" y="0px"
	 width="2466.65px" height="1441.48px" viewBox="0 0 2466.65 1441.48" enable-background="new 0 0 2466.65 1441.48"
	 xml:space="preserve">
<path fill="none" stroke="#E79C10" stroke-width="50" stroke-linecap="round" stroke-miterlimit="10" d="M1232.27,612.089"/>
<path fill="none" stroke="#E79C10" stroke-width="50" stroke-linecap="round" stroke-miterlimit="10" d="M1232.27,612.089"/>
<path fill="none" stroke="#E79C10" stroke-width="50" stroke-linecap="round" stroke-miterlimit="10" d="M1123.945,0
	c42.679,69.439,27.774,207.949-54.167,338.495c-100.917,160.822-18.053,313.87,162.491,273.595"/>
<path fill="none" stroke="#D39A2A" stroke-width="50" stroke-linecap="round" stroke-miterlimit="10" d="M819.522,12.588"/>
<path fill="none" stroke="#D39A2A" stroke-width="50" stroke-linecap="round" stroke-miterlimit="10" d="M1607.013,12.588"/>
<path fill="none" stroke="#E79C10" stroke-width="50" stroke-linecap="round" stroke-miterlimit="10" d="M1232.27,612.089
	c240.447-73.239,282.297,55.271,480.891,55.271"/>
<path fill="none" stroke="#E79C10" stroke-width="50" stroke-linecap="round" stroke-miterlimit="10" d="M1713.069,667.269"/>
<path fill="none" stroke="#E79C10" stroke-width="50" stroke-linecap="round" stroke-miterlimit="10" d="M1713.069,667.269"/>
<path fill="none" stroke="#E79C10" stroke-width="50" stroke-linecap="round" stroke-miterlimit="10" d="M1835.282,789.486
	c-67.494,0-122.213-54.721-122.213-122.217c0-67.497,54.719-122.217,122.213-122.217"/>
<line fill="none" stroke="#E79C10" stroke-width="50" stroke-linecap="round" stroke-miterlimit="10" x1="1835.282" y1="545.052" x2="1865.557" y2="545.052"/>
<line fill="none" stroke="#E79C10" stroke-width="50" stroke-linecap="round" stroke-miterlimit="10" x1="1835.282" y1="789.486" x2="1865.557" y2="789.486"/>
<line fill="none" stroke="#E79C10" stroke-width="50" stroke-linecap="round" stroke-miterlimit="10" x1="1865.557" y1="545.052" x2="1865.557" y2="789.486"/>
<line fill="none" stroke="#E79C10" stroke-width="50" stroke-linecap="round" stroke-miterlimit="10" x1="1965.829" y1="602.458" x2="1865.557" y2="602.458"/>
<line fill="none" stroke="#E79C10" stroke-width="50" stroke-linecap="round" stroke-miterlimit="10" x1="1965.829" y1="732.171" x2="1865.557" y2="732.171"/>
<circle fill="none" stroke="#E79C10" stroke-width="50" stroke-linecap="round" stroke-miterlimit="10" cx="2247.569" cy="599.124" r="0.926"/>
<circle fill="none" stroke="#E79C10" stroke-width="50" stroke-linecap="round" stroke-miterlimit="10" cx="2247.569" cy="732.171" r="0.925"/>
<path fill="none" stroke="#E79C10" stroke-width="50" stroke-linecap="round" stroke-miterlimit="10" d="M2248.028,524.223
	c54.561,0,98.792,65.66,98.792,146.654s-44.231,146.662-98.792,146.662s-98.784-65.668-98.784-146.662
	S2193.468,524.223,2248.028,524.223z"/>
<rect x="2028.037" y="991.708" fill="none" width="340.632" height="145.633"/>
</svg>
