<?xml version="1.0" encoding="utf-8"?>
<!-- Generator: Adobe Illustrator 16.0.3, SVG Export Plug-In . SVG Version: 6.00 Build 0)  -->
<!DOCTYPE svg PUBLIC "-//W3C//DTD SVG 1.1//EN" "http://www.w3.org/Graphics/SVG/1.1/DTD/svg11.dtd">
<svg version="1.1" id="Layer_1" xmlns="http://www.w3.org/2000/svg" xmlns:xlink="http://www.w3.org/1999/xlink" x="0px" y="0px"
	 width="2466.65px" height="1441.48px" viewBox="0 0 2466.65 1441.48" enable-background="new 0 0 2466.65 1441.48"
	 xml:space="preserve">
<g>
	<defs>
		<rect id="SVGID_1_" width="2466.646" height="1441.48"/>
	</defs>
	<clipPath id="SVGID_2_">
		<use xlink:href="#SVGID_1_"  overflow="visible"/>
	</clipPath>
	<path clip-path="url(#SVGID_2_)" fill="#E79C10" d="M2303.659,1225.363h-474.944l-22.091-65.311H661.285l-21.237,65.311h-531.51
		c-30.982,0-56.098-25.116-56.098-56.098V83.899c0-30.981,25.116-56.097,56.098-56.097h545.01l23.853,72.333h1145.339l23.684-72.333
		h457.236c30.983,0,56.098,25.116,56.098,56.097v1085.366C2359.757,1200.247,2334.643,1225.363,2303.659,1225.363 M124.69,61.302
		c-21.401,0-38.75,17.349-38.75,38.75s17.349,38.75,38.75,38.75s38.75-17.349,38.75-38.75S146.091,61.302,124.69,61.302
		 M2287.424,61.385c-21.4,0-38.75,17.349-38.75,38.75s17.35,38.75,38.75,38.75s38.75-17.349,38.75-38.75
		S2308.824,61.385,2287.424,61.385 M124.69,1121.302c-21.401,0-38.75,17.349-38.75,38.75c0,21.4,17.349,38.75,38.75,38.75
		s38.75-17.35,38.75-38.75C163.44,1138.651,146.091,1121.302,124.69,1121.302 M2287.424,1121.384c-21.4,0-38.75,17.35-38.75,38.75
		c0,21.401,17.35,38.75,38.75,38.75s38.75-17.349,38.75-38.75C2326.174,1138.734,2308.824,1121.384,2287.424,1121.384
		 M932.048,921.531V331.633c0-11.074-8.977-20.051-20.051-20.051H466.099c-11.074,0-20.051,8.978-20.051,20.051v589.898
		c0,11.074,8.978,20.052,20.051,20.052h445.898C923.071,941.583,932.048,932.605,932.048,921.531 M1968.048,921.531V331.634
		c0-11.075-8.977-20.052-20.051-20.052h-445.898c-11.073,0-20.051,8.978-20.051,20.052v589.897c0,11.074,8.978,20.052,20.051,20.052
		h445.898C1959.071,941.583,1968.048,932.605,1968.048,921.531"/>
</g>
<g>
	<path fill="#E79C10" d="M592.033,520.902v229.137h-29.577V520.902H592.033z"/>
	<path fill="#E79C10" d="M643.708,750.039V520.902h32.297l73.433,115.928c16.998,26.857,30.257,50.995,41.136,74.453l0.68-0.34
		c-2.72-30.597-3.4-58.474-3.4-94.17v-95.87h27.877v229.137h-29.917L713.062,633.77c-15.979-25.497-31.277-51.675-42.836-76.492
		l-1.02,0.34c1.7,28.897,2.38,56.435,2.38,94.511v97.91H643.708z"/>
</g>
<g>
	<path fill="#E79C10" d="M1591.892,520.902v135.646c0,51.335,22.778,73.092,53.375,73.092c33.997,0,55.755-22.438,55.755-73.092
		V520.902h29.916v133.606c0,70.373-37.056,99.27-86.69,99.27c-46.916,0-82.272-26.856-82.272-97.91V520.902H1591.892z"/>
	<path fill="#E79C10" d="M1825.789,546.059h-69.693v-25.157h169.643v25.157h-70.033v203.979h-29.916V546.059z"/>
</g>
<g>
	<defs>
		<rect id="SVGID_3_" width="2466.646" height="1441.48"/>
	</defs>
	<clipPath id="SVGID_4_">
		<use xlink:href="#SVGID_3_"  overflow="visible"/>
	</clipPath>
	
		<line clip-path="url(#SVGID_4_)" fill="none" stroke="#E79C10" stroke-width="12" stroke-miterlimit="10" x1="2288.865" y1="1132.064" x2="2285.981" y2="1188.206"/>
	
		<line clip-path="url(#SVGID_4_)" fill="none" stroke="#E79C10" stroke-width="12" stroke-miterlimit="10" x1="2315.491" y1="1161.629" x2="2259.356" y2="1158.64"/>
	
		<line clip-path="url(#SVGID_4_)" fill="none" stroke="#E79C10" stroke-width="12" stroke-miterlimit="10" x1="101.596" y1="1144.03" x2="147.784" y2="1176.073"/>
	
		<line clip-path="url(#SVGID_4_)" fill="none" stroke="#E79C10" stroke-width="12" stroke-miterlimit="10" x1="140.755" y1="1136.988" x2="108.625" y2="1183.116"/>
	
		<line clip-path="url(#SVGID_4_)" fill="none" stroke="#E79C10" stroke-width="12" stroke-miterlimit="10" x1="148.143" y1="84.643" x2="101.238" y2="115.626"/>
	
		<line clip-path="url(#SVGID_4_)" fill="none" stroke="#E79C10" stroke-width="12" stroke-miterlimit="10" x1="140.138" y1="123.617" x2="109.242" y2="76.654"/>
	
		<line clip-path="url(#SVGID_4_)" fill="none" stroke="#E79C10" stroke-width="12" stroke-miterlimit="10" x1="2299.651" y1="125.443" x2="2275.196" y2="74.827"/>
	
		<line clip-path="url(#SVGID_4_)" fill="none" stroke="#E79C10" stroke-width="12" stroke-miterlimit="10" x1="2262.093" y1="112.314" x2="2312.756" y2="87.956"/>
	
		<path clip-path="url(#SVGID_4_)" fill="none" stroke="#E79C10" stroke-width="31" stroke-linecap="round" stroke-miterlimit="10" d="
		M854.048,1160.135c-41.307,106.308,22.364,149.254,68,151.345"/>
	
		<path clip-path="url(#SVGID_4_)" fill="none" stroke="#E79C10" stroke-width="31" stroke-linecap="round" stroke-miterlimit="10" d="
		M1076.048,1458.813c6.701-75.743-52.443-133.371-154-147.333"/>
	
		<path clip-path="url(#SVGID_4_)" fill="none" stroke="#E79C10" stroke-width="31" stroke-linecap="round" stroke-miterlimit="10" d="
		M1412.313,1426.063"/>
	
		<path clip-path="url(#SVGID_4_)" fill="none" stroke="#E79C10" stroke-width="31" stroke-linecap="round" stroke-miterlimit="10" d="
		M740.813,1426.063"/>
</g>
</svg>
