<?xml version="1.0" encoding="utf-8"?>
<!-- Generator: Adobe Illustrator 21.1.0, SVG Export Plug-In . SVG Version: 6.00 Build 0)  -->
<svg version="1.1" id="Layer_1" xmlns="http://www.w3.org/2000/svg" xmlns:xlink="http://www.w3.org/1999/xlink" x="0px" y="0px"
	 viewBox="0 0 1021 236" style="enable-background:new 0 0 1021 236;" xml:space="preserve">
<style type="text/css">
	.st0{fill:#262626;}
</style>
<g>
	<g>
		<g>
			<path class="st0" d="M343.7,64.3H362v104.4h-18.3V64.3z"/>
			<path class="st0" d="M389.5,64.3h20.8l23.5,43.5C447,132,452,144.7,452,144.7s-1.2-12.9-1.2-36.9V64.3h18.5v104.4h-20.9
				l-23.8-43.4c-12.8-22.9-18.3-37.5-18.3-37.5s1.6,14.7,1.6,37.3v43.5h-18.3V64.3z"/>
			<path class="st0" d="M514.7,80.3v30.8h34v16h-34v41.7h-18.5V64.3h57.4v15.9H514.7z"/>
			<path class="st0" d="M615,62.5c28.6,0,46.4,21.4,46.4,53.7c0,32.1-18,53.6-46.2,53.6c-28.2,0-46.4-21.4-46.4-53.6
				C568.8,84,586.8,62.5,615,62.5z M615.2,151.8c16.6,0,26.6-13.6,26.6-35.6c0-22-10-35.8-26.7-35.8c-16.4,0-26.6,13.8-26.6,35.8
				C588.4,138.2,598.9,151.8,615.2,151.8z"/>
			<path class="st0" d="M742.3,80.4h-24.8v88.3H699V80.4h-24.8V64.3h68.1V80.4z"/>
			<path class="st0" d="M819.6,152.8v16h-58.4V64.3H819v15.9h-39.4v28.3h35v15.8h-35v28.3H819.6z"/>
			<path class="st0" d="M912.3,87.7c-8.3-5.1-14.5-6.8-24.4-6.8c-17.3,0-31.2,13.5-31.2,35.6c0,22,13.2,35.5,32.3,35.5
				c8.3,0,17.3-2.8,23.5-7.7v19.5c-7.4,5.1-17.6,6.2-25.3,6.2c-28.5,0-50.1-20.8-50.1-53.4c0-31.7,20.8-53.6,50.1-53.6
				c8,0,17.6,0.9,25.1,5.7V87.7z"/>
			<path class="st0" d="M1013,64.3v104.4h-18.5v-43.8h-40.2v43.8H936V64.3h18.3V108h40.2V64.3H1013z"/>
		</g>
	</g>
	<g>
		<path class="st0" d="M230.2,116.5c0,0,0-0.1,0-0.1c0,0,0-0.1,0-0.1c0-0.8,0-1.7-0.1-2.5c-0.7-26.8-10.8-51.3-27.3-70.2
			c10.6,16,16.8,35.1,16.8,55.7c0,55.9-45.5,101.2-101.5,101.2S16.5,155.3,16.5,99.3c0-18.3,4.9-35.4,13.4-50.2
			c-14,18.3-22.4,41.1-22.8,65.8c0,0.5,0,0.9,0,1.4c0,0,0,0.1,0,0.1c0,0,0,0.1,0,0.1c0,39.6,20.8,74.4,52.1,94.1
			c17.2,10.9,37.6,17.2,59.5,17.2c21.7,0,42-6.2,59.1-17C209.2,191.2,230.2,156.3,230.2,116.5z"/>
		<path class="st0" d="M133.2,184.3c-47.4,0-85.8-38.3-85.8-85.5c0-47.2,38.4-85.5,85.8-85.5c16.4,0,31.7,4.6,44.7,12.5
			C163.3,13.9,145,6.3,125.1,4.9c-0.4,0-0.8-0.1-1.2-0.1c-1.4-0.1-2.7-0.1-4.1-0.1c-0.4,0-0.9,0-1.3,0c-13,0-25.4,2.6-36.6,7.4
			C47.9,26.3,24.2,59.8,24.2,98.8c0,52,42.2,94.1,94.4,94.1c22.9,0,43.8-8.1,60.2-21.6C165.5,179.5,149.9,184.3,133.2,184.3z"/>
		<path class="st0" d="M210.2,98.8c0-42.8-34.7-77.4-77.4-77.4c-18.4,0-35.3,6.5-48.6,17.2c-0.7,0.5-1.4,1.1-2,1.7
			c-0.3,0.3-0.6,0.6-1,0.9C66.6,54,56.9,72.2,55.3,92.6c6.9-31.6,35.1-55.3,68.8-55.3c38.9,0,70.5,31.5,70.5,70.3
			c0,33.2-23.1,61-54.1,68.3c24.3-2.5,45.3-16.1,57.7-35.8c-0.1,0.2-0.1,0.3-0.2,0.5C205.7,128.5,210.2,114.2,210.2,98.8z"/>
	</g>
</g>
</svg>
