<?xml version="1.0" encoding="utf-8"?>
<!-- Generator: Adobe Illustrator 16.0.3, SVG Export Plug-In . SVG Version: 6.00 Build 0)  -->
<!DOCTYPE svg PUBLIC "-//W3C//DTD SVG 1.1//EN" "http://www.w3.org/Graphics/SVG/1.1/DTD/svg11.dtd">
<svg version="1.1" id="Layer_1" xmlns="http://www.w3.org/2000/svg" xmlns:xlink="http://www.w3.org/1999/xlink" x="0px" y="0px"
	 width="726px" height="768px" viewBox="0 0 726 768" enable-background="new 0 0 726 768" xml:space="preserve">
<rect x="32.531" y="637.499" fill="#262626" width="18.055" height="102.933"/>
<g>
	<defs>
		<rect id="SVGID_1_" width="726" height="768"/>
	</defs>
	<clipPath id="SVGID_2_">
		<use xlink:href="#SVGID_1_"  overflow="visible"/>
	</clipPath>
	<path clip-path="url(#SVGID_2_)" fill="#262626" d="M77.668,637.5h20.491l23.213,42.912c13.037,23.827,17.911,36.349,17.911,36.349
		s-1.146-12.674-1.146-36.349V637.5h18.196v102.933h-20.634l-23.497-42.76c-12.611-22.604-18.055-36.96-18.055-36.96
		s1.576,14.508,1.576,36.809v42.911H77.668V637.5z"/>
	<polygon clip-path="url(#SVGID_2_)" fill="#262626" points="201.184,653.229 201.184,683.622 234.712,683.622 234.712,699.352 
		201.184,699.352 201.184,740.434 182.985,740.434 182.985,637.502 239.586,637.502 239.586,653.229 	"/>
	<path clip-path="url(#SVGID_2_)" fill="#262626" d="M300.052,635.669c28.227,0,45.708,21.073,45.708,52.992
		c0,31.615-17.765,52.842-45.564,52.842s-45.708-21.077-45.708-52.842C254.488,656.896,272.256,635.669,300.052,635.669
		 M300.196,723.787c16.334,0,26.222-13.438,26.222-35.126c0-21.686-9.888-35.276-26.366-35.276
		c-16.191,0-26.223,13.591-26.223,35.276C273.829,710.349,284.148,723.787,300.196,723.787"/>
	<polygon clip-path="url(#SVGID_2_)" fill="#262626" points="425.577,653.384 401.075,653.384 401.075,740.433 382.876,740.433 
		382.876,653.384 358.374,653.384 358.374,637.501 425.577,637.501 	"/>
	<polygon clip-path="url(#SVGID_2_)" fill="#262626" points="501.808,724.702 501.808,740.431 444.203,740.431 444.203,637.5 
		501.232,637.5 501.232,653.229 462.403,653.229 462.403,681.179 496.937,681.179 496.937,696.756 462.403,696.756 462.403,724.702 
			"/>
	<path clip-path="url(#SVGID_2_)" fill="#262626" d="M593.228,660.561c-8.167-5.038-14.327-6.719-24.071-6.719
		c-17.053,0-30.809,13.285-30.809,35.123c0,21.688,13.041,34.974,31.811,34.974c8.168,0,17.049-2.75,23.213-7.636v19.244
		c-7.309,5.038-17.337,6.107-24.933,6.107c-28.084,0-49.433-20.466-49.433-52.689c0-31.307,20.49-52.839,49.433-52.839
		c7.88,0,17.337,0.915,24.789,5.649V660.561z"/>
	<polygon clip-path="url(#SVGID_2_)" fill="#262626" points="692.526,637.5 692.526,740.433 674.328,740.433 674.328,697.212 
		634.64,697.212 634.64,740.433 616.584,740.433 616.584,637.5 634.64,637.5 634.64,680.565 674.328,680.565 674.328,637.5 	"/>
	<path clip-path="url(#SVGID_2_)" fill="#D53A33" d="M554.066,114.766c24.18,36.48,38.294,80.177,38.294,127.179
		c0,127.569-103.704,230.985-231.626,230.985c-127.921,0-231.625-103.417-231.625-230.985c0-41.693,11.134-80.771,30.514-114.536
		c-32.656,42.676-52.081,95.955-52.081,153.78c0,140.163,113.935,253.784,254.486,253.784
		c140.547,0,254.486-113.621,254.486-253.784C616.515,217.494,592.929,159.326,554.066,114.766"/>
	<path clip-path="url(#SVGID_2_)" fill="#1D9099" d="M395.401,435.681c-108.076,0-195.686-87.37-195.686-195.148
		c0-107.779,87.61-195.149,195.686-195.149c37.346,0,72.242,10.444,101.933,28.548C460.327,43.977,413.177,26,361.798,26
		c-118.888,0-215.264,96.111-215.264,214.674c0,118.559,96.376,214.67,215.264,214.67c52.18,0,100.02-18.525,137.282-49.328
		C469.012,424.791,433.489,435.681,395.401,435.681"/>
	<path clip-path="url(#SVGID_2_)" fill="#E79C10" d="M393.704,64.728c-92.785,0-168.827,71.263-176.229,161.889
		c15.655-72.176,80.019-126.264,157.079-126.264c88.773,0,160.74,71.768,160.74,160.298c0,75.752-52.707,139.189-123.532,155.937
		c89.201-9.021,158.813-84.14,158.813-175.476C570.575,143.696,491.388,64.728,393.704,64.728"/>
</g>
</svg>
