<?xml version="1.0" encoding="utf-8"?>
<!-- Generator: Adobe Illustrator 16.0.3, SVG Export Plug-In . SVG Version: 6.00 Build 0)  -->
<!DOCTYPE svg PUBLIC "-//W3C//DTD SVG 1.1//EN" "http://www.w3.org/Graphics/SVG/1.1/DTD/svg11.dtd">
<svg version="1.1" id="Layer_1" xmlns="http://www.w3.org/2000/svg" xmlns:xlink="http://www.w3.org/1999/xlink" x="0px" y="0px"
	 width="841.89px" height="595.28px" viewBox="0 0 841.89 595.28" enable-background="new 0 0 841.89 595.28" xml:space="preserve">
<line fill="none" stroke="#D53B32" stroke-width="9" stroke-miterlimit="10" x1="186.833" y1="310.806" x2="253.333" y2="310.806"/>
<rect x="331" y="111.481" fill="#262626" stroke="#E89D24" stroke-width="7" stroke-miterlimit="10" width="220.667" height="398.648"/>
<polygon fill="#E79D23" points="520,568.739 331,509.739 331,111.091 520,170.091 "/>
<line fill="none" stroke="#D53B32" stroke-width="9" stroke-linecap="round" stroke-miterlimit="10" x1="303.333" y1="310.806" x2="329.288" y2="322.415"/>
<line fill="none" stroke="#D53B32" stroke-width="9" stroke-linecap="round" stroke-miterlimit="10" x1="120.586" y1="140" x2="322.333" y2="140"/>
<g>
	<path fill="#E79D23" d="M307.865,350.682c0,4.744-2.091,8.589-4.67,8.589h-58.828c-2.579,0-4.67-3.845-4.67-8.589v-76.022
		c0-4.744,2.091-8.59,4.67-8.59h58.828c2.579,0,4.67,3.846,4.67,8.59V350.682z"/>
	<path fill="none" stroke="#000000" stroke-linecap="round" stroke-miterlimit="10" d="M307.865,296.122"/>
	<path fill="none" stroke="#000000" stroke-linecap="round" stroke-miterlimit="10" d="M305.043,296.125"/>
</g>
<g>
	<g>
		
			<line fill="none" stroke="#D53B32" stroke-width="9" stroke-linecap="round" stroke-miterlimit="10" x1="327.657" y1="321.689" x2="334.053" y2="324.533"/>
		
			<line fill="none" stroke="#D53B32" stroke-width="9" stroke-linecap="round" stroke-miterlimit="10" stroke-dasharray="13.5852,13.5852" x1="346.467" y1="330.052" x2="464.396" y2="382.48"/>
		
			<line fill="none" stroke="#D53B32" stroke-width="9" stroke-linecap="round" stroke-miterlimit="10" x1="470.604" y1="385.24" x2="477" y2="388.084"/>
	</g>
</g>
<g>
	<polygon fill="#262626" points="501.167,434.516 470,424.786 470,359.046 501.167,368.775 	"/>
	<polygon fill="#E79D23" stroke="#E89D24" stroke-width="0.25" stroke-miterlimit="10" points="496.583,389.849 488.75,387.403 
		488.75,370.879 496.583,373.324 	"/>
	<polygon fill="#E79D23" stroke="#E89D24" stroke-width="0.25" stroke-miterlimit="10" points="488.75,387.413 480.917,384.968 
		480.917,368.443 488.75,370.889 	"/>
	<polygon fill="#E79D23" stroke="#E89D24" stroke-width="0.25" stroke-miterlimit="10" points="480.917,384.95 473.084,382.505 
		473.084,365.98 480.917,368.426 	"/>
	<polygon fill="#E79D23" points="480.729,396.957 473.813,394.798 473.813,387.089 480.729,389.248 	"/>
	<polygon fill="#E79D23" points="488.584,399.356 481.668,397.197 481.668,389.488 488.584,391.647 	"/>
	<polygon fill="#E79D23" points="496.583,401.892 489.667,399.732 489.667,392.023 496.583,394.183 	"/>
	<polygon fill="#E79D23" points="480.657,405.888 473.741,403.729 473.741,396.02 480.657,398.179 	"/>
	<polygon fill="#E79D23" points="488.512,408.287 481.596,406.128 481.596,398.419 488.512,400.578 	"/>
	<polygon fill="#E79D23" points="496.511,410.822 489.595,408.663 489.595,400.954 496.511,403.113 	"/>
	<polygon fill="#E79D23" points="480.761,415.087 473.845,412.928 473.845,405.219 480.761,407.378 	"/>
	<polygon fill="#E79D23" points="488.615,417.486 481.699,415.327 481.699,407.618 488.615,409.777 	"/>
	<polygon fill="#E79D23" points="496.583,420.053 489.667,417.894 489.667,410.185 496.583,412.344 	"/>
	<polygon fill="#E79D23" points="480.761,424.274 473.845,422.115 473.845,414.406 480.761,416.565 	"/>
	<polygon fill="#E79D23" points="488.615,426.674 481.699,424.515 481.699,416.806 488.615,418.965 	"/>
	<polygon fill="#E79D23" points="496.583,429.24 489.667,427.081 489.667,419.372 496.583,421.531 	"/>
</g>
<line fill="none" stroke="#D53B32" stroke-width="9" stroke-linecap="round" stroke-miterlimit="10" x1="120.586" y1="259.5" x2="120.586" y2="140"/>
<line fill="none" stroke="#D53B32" stroke-width="9" stroke-linecap="round" stroke-miterlimit="10" x1="120.586" y1="481.49" x2="120.586" y2="361.99"/>
<line fill="none" stroke="#D53B32" stroke-width="9" stroke-linecap="round" stroke-miterlimit="10" stroke-dasharray="14" x1="321.5" y1="140" x2="558" y2="140"/>
<line fill="none" stroke="#D53B32" stroke-width="9" stroke-linecap="round" stroke-miterlimit="10" x1="558" y1="140" x2="740.957" y2="140"/>
<line fill="none" stroke="#D53B32" stroke-width="9" stroke-linecap="round" stroke-miterlimit="10" x1="740.957" y1="140" x2="740.957" y2="261.333"/>
<path fill="#E79D23" d="M828.54,366.435c0,6.629-5.372,12-12,12H665.372c-6.627,0-12-5.371-12-12V260.233c0-6.627,5.373-12,12-12
	H816.54c6.628,0,12,5.373,12,12V366.435z"/>
<path fill="none" stroke="#000000" stroke-linecap="round" stroke-miterlimit="10" d="M787.011,280.664"/>
<path fill="none" stroke="#000000" stroke-linecap="round" stroke-miterlimit="10" d="M784.188,280.667"/>
<g>
	<path fill="none" stroke="#262626" stroke-width="3" stroke-linecap="round" stroke-miterlimit="10" d="M717.267,329.405
		c-3.191-4.631-5.06-10.243-5.06-16.293c0-5.954,1.811-11.485,4.91-16.074"/>
	<path fill="none" stroke="#262626" stroke-width="3" stroke-linecap="round" stroke-miterlimit="10" d="M764.646,296.814
		c3.192,4.632,5.062,10.246,5.062,16.298c0,5.954-1.811,11.485-4.91,16.074"/>
	<path fill="none" stroke="#262626" stroke-width="3" stroke-linecap="round" stroke-miterlimit="10" d="M704.364,338.282
		c-4.93-7.153-7.815-15.823-7.815-25.167c0-9.197,2.796-17.741,7.585-24.829"/>
	<path fill="none" stroke="#262626" stroke-width="3" stroke-linecap="round" stroke-miterlimit="10" d="M777.547,287.941
		c4.931,7.154,7.818,15.827,7.818,25.174c0,9.197-2.796,17.742-7.585,24.829"/>
	<path fill="none" stroke="#262626" stroke-width="3" stroke-linecap="round" stroke-miterlimit="10" d="M692.489,346.281
		c-6.529-9.475-10.352-20.957-10.352-33.333c0-12.183,3.703-23.499,10.046-32.887"/>
	<path fill="none" stroke="#262626" stroke-width="3" stroke-linecap="round" stroke-miterlimit="10" d="M789.42,279.604
		c6.531,9.476,10.355,20.964,10.355,33.344c0,12.181-3.703,23.499-10.046,32.886"/>
	
		<circle fill="#262626" stroke="#262626" stroke-width="3" stroke-linecap="round" stroke-miterlimit="10" cx="740.957" cy="313.222" r="9.875"/>
</g>
<g>
	<path fill="#E79D23" d="M208.17,365.82c0,6.628-5.373,11.999-12,11.999H45.002c-6.627,0-12-5.371-12-11.999V259.618
		c0-6.627,5.373-12,12-12H196.17c6.627,0,12,5.373,12,12V365.82z"/>
	<path fill="none" stroke="#000000" stroke-linecap="round" stroke-miterlimit="10" d="M166.64,280.049"/>
	<path fill="none" stroke="#000000" stroke-linecap="round" stroke-miterlimit="10" d="M163.818,280.052"/>
	<g>
		<path fill="none" stroke="#262626" stroke-width="3" stroke-linecap="round" stroke-miterlimit="10" d="M96.896,328.791
			c-3.191-4.631-5.06-10.244-5.06-16.293c0-5.955,1.811-11.486,4.91-16.075"/>
		<path fill="none" stroke="#262626" stroke-width="3" stroke-linecap="round" stroke-miterlimit="10" d="M144.275,296.2
			c3.192,4.632,5.062,10.247,5.062,16.298c0,5.953-1.811,11.485-4.91,16.074"/>
		<path fill="none" stroke="#262626" stroke-width="3" stroke-linecap="round" stroke-miterlimit="10" d="M83.994,337.668
			c-4.93-7.153-7.815-15.823-7.815-25.167c0-9.198,2.796-17.742,7.585-24.829"/>
		<path fill="none" stroke="#262626" stroke-width="3" stroke-linecap="round" stroke-miterlimit="10" d="M157.176,287.327
			c4.931,7.154,7.818,15.828,7.818,25.174c0,9.196-2.796,17.741-7.585,24.829"/>
		<path fill="none" stroke="#262626" stroke-width="3" stroke-linecap="round" stroke-miterlimit="10" d="M72.119,345.666
			c-6.529-9.474-10.352-20.957-10.352-33.332c0-12.184,3.703-23.5,10.046-32.887"/>
		<path fill="none" stroke="#262626" stroke-width="3" stroke-linecap="round" stroke-miterlimit="10" d="M169.049,278.99
			c6.531,9.476,10.355,20.963,10.355,33.344c0,12.181-3.703,23.498-10.046,32.885"/>
		
			<circle fill="#262626" stroke="#262626" stroke-width="3" stroke-linecap="round" stroke-miterlimit="10" cx="120.586" cy="312.607" r="9.875"/>
	</g>
</g>
<g>
	<path fill="#E79D23" d="M82.575,532.932c-4.744,0-8.589-2.091-8.589-4.67v-58.828c0-2.579,3.845-4.67,8.589-4.67h76.022
		c4.744,0,8.59,2.091,8.59,4.67v58.828c0,2.579-3.846,4.67-8.59,4.67H82.575z"/>
	<path fill="none" stroke="#000000" stroke-linecap="round" stroke-miterlimit="10" d="M137.135,532.932"/>
	<path fill="none" stroke="#000000" stroke-linecap="round" stroke-miterlimit="10" d="M137.131,530.109"/>
</g>
<g>
	<path fill="#E79D23" d="M141.115,25.561h7.776v33.6h-7.776V25.561z"/>
	<path fill="#E79D23" d="M187.674,25.561v33.6h-6.384l-16.752-20.4v20.4h-7.68v-33.6h6.432l16.704,20.4v-20.4H187.674z"/>
	<path fill="#E79D23" d="M226.458,25.561v33.6h-6.384l-16.752-20.4v20.4h-7.68v-33.6h6.432l16.704,20.4v-20.4H226.458z"/>
	<path fill="#E79D23" d="M260.443,52.921v6.24h-26.016v-33.6h25.392v6.24h-17.664v7.296h15.6v6.048h-15.6v7.776H260.443z"/>
</g>
<g>
	<path fill="#E79D23" d="M603.835,55.753c-2.672-2.656-4.008-6.448-4.008-11.376V25.561h7.776v18.528
		c0,6.016,2.495,9.024,7.487,9.024c2.432,0,4.288-0.728,5.568-2.184c1.279-1.456,1.92-3.736,1.92-6.84V25.561h7.68v18.816
		c0,4.928-1.336,8.72-4.008,11.376c-2.672,2.657-6.408,3.984-11.208,3.984S606.507,58.41,603.835,55.753z"/>
	<path fill="#E79D23" d="M644.323,31.897h-10.752v-6.336h29.28v6.336H652.1v27.264h-7.776V31.897z"/>
	<path fill="#E79D23" d="M693.043,52.921v6.24h-26.016v-33.6h25.392v6.24h-17.664v7.296h15.601v6.048h-15.601v7.776H693.043z"/>
</g>
<g>
	<path fill="#E79D23" d="M36.662,559.102c-1.24-0.36-2.236-0.828-2.988-1.404l1.32-2.928c0.72,0.528,1.576,0.952,2.568,1.272
		c0.992,0.319,1.984,0.479,2.976,0.479c1.104,0,1.92-0.164,2.448-0.492c0.528-0.327,0.792-0.764,0.792-1.308
		c0-0.4-0.156-0.732-0.468-0.996s-0.712-0.476-1.2-0.636c-0.488-0.16-1.148-0.336-1.98-0.528c-1.28-0.304-2.328-0.607-3.144-0.912
		c-0.816-0.304-1.516-0.792-2.1-1.464s-0.876-1.568-0.876-2.688c0-0.976,0.264-1.859,0.792-2.651
		c0.528-0.792,1.324-1.42,2.388-1.884c1.064-0.464,2.364-0.696,3.9-0.696c1.072,0,2.12,0.128,3.144,0.384s1.92,0.624,2.688,1.104
		l-1.2,2.951c-1.552-0.879-3.104-1.319-4.656-1.319c-1.088,0-1.892,0.176-2.412,0.527c-0.52,0.353-0.78,0.816-0.78,1.393
		s0.3,1.004,0.9,1.284s1.516,0.556,2.748,0.828c1.28,0.304,2.328,0.607,3.144,0.911c0.816,0.305,1.516,0.784,2.1,1.44
		c0.583,0.656,0.876,1.544,0.876,2.664c0,0.96-0.268,1.836-0.804,2.628s-1.34,1.42-2.412,1.884s-2.376,0.696-3.912,0.696
		C39.186,559.642,37.902,559.462,36.662,559.102z"/>
	<path fill="#E79D23" d="M58.37,558.729c-0.368,0.272-0.82,0.477-1.356,0.612c-0.537,0.136-1.101,0.204-1.692,0.204
		c-1.536,0-2.724-0.393-3.564-1.177c-0.84-0.783-1.26-1.936-1.26-3.456v-5.304h-1.992v-2.88h1.992v-3.144h3.744v3.144h3.216v2.88
		h-3.216v5.256c0,0.544,0.14,0.965,0.42,1.261c0.28,0.296,0.676,0.443,1.188,0.443c0.592,0,1.096-0.159,1.512-0.479L58.37,558.729z"
		/>
	<path fill="#E79D23" d="M65.87,546.729c0.76-0.32,1.636-0.479,2.628-0.479v3.455c-0.417-0.031-0.696-0.048-0.84-0.048
		c-1.072,0-1.912,0.3-2.52,0.9c-0.608,0.6-0.912,1.5-0.912,2.7v6.096h-3.744v-12.912h3.576v1.704
		C64.505,547.521,65.109,547.05,65.87,546.729z"/>
	<path fill="#E79D23" d="M73.094,558.693c-1.08-0.567-1.924-1.355-2.532-2.364c-0.608-1.008-0.912-2.151-0.912-3.432
		s0.304-2.424,0.912-3.432c0.608-1.009,1.452-1.796,2.532-2.364c1.08-0.567,2.3-0.852,3.66-0.852c1.36,0,2.576,0.284,3.648,0.852
		c1.072,0.568,1.912,1.355,2.52,2.364c0.608,1.008,0.912,2.151,0.912,3.432s-0.304,2.424-0.912,3.432
		c-0.608,1.009-1.448,1.797-2.52,2.364c-1.072,0.568-2.288,0.853-3.648,0.853C75.394,559.546,74.174,559.262,73.094,558.693z
		 M81.05,544.857h1.872l-10.584,16.2H70.49L81.05,544.857z M79.118,555.502c0.616-0.648,0.924-1.517,0.924-2.604
		s-0.309-1.956-0.924-2.604c-0.616-0.648-1.404-0.973-2.364-0.973s-1.752,0.324-2.376,0.973c-0.624,0.647-0.936,1.516-0.936,2.604
		s0.312,1.956,0.936,2.604c0.624,0.647,1.416,0.972,2.376,0.972S78.502,556.149,79.118,555.502z"/>
	<path fill="#E79D23" d="M106.718,547.678c0.952,0.952,1.428,2.38,1.428,4.284v7.392h-3.744v-6.816c0-1.023-0.212-1.787-0.636-2.292
		c-0.424-0.504-1.028-0.756-1.812-0.756c-0.88,0-1.576,0.284-2.088,0.853c-0.512,0.567-0.768,1.412-0.768,2.531v6.48h-3.744v-6.816
		c0-2.031-0.816-3.048-2.448-3.048c-0.864,0-1.552,0.284-2.064,0.853c-0.513,0.567-0.768,1.412-0.768,2.531v6.48H86.33v-12.912
		h3.576v1.488c0.48-0.544,1.068-0.96,1.764-1.248c0.696-0.288,1.46-0.432,2.292-0.432c0.912,0,1.736,0.18,2.472,0.539
		c0.736,0.36,1.328,0.885,1.776,1.572c0.528-0.672,1.196-1.191,2.004-1.56s1.692-0.552,2.652-0.552
		C104.481,546.25,105.766,546.726,106.718,547.678z"/>
	<path fill="#E79D23" d="M121.322,547.678c1.072,0.952,1.608,2.388,1.608,4.308v7.368h-3.504v-1.608
		c-0.704,1.2-2.016,1.801-3.936,1.801c-0.992,0-1.852-0.168-2.58-0.504c-0.728-0.337-1.284-0.801-1.668-1.393
		c-0.384-0.592-0.576-1.264-0.576-2.016c0-1.2,0.452-2.145,1.356-2.832c0.904-0.688,2.3-1.032,4.188-1.032h2.976
		c0-0.816-0.249-1.443-0.744-1.884c-0.496-0.44-1.24-0.66-2.232-0.66c-0.688,0-1.364,0.108-2.028,0.324s-1.228,0.508-1.692,0.876
		l-1.344-2.616c0.704-0.496,1.548-0.88,2.532-1.152c0.984-0.271,1.996-0.407,3.036-0.407
		C118.714,546.25,120.25,546.726,121.322,547.678z M118.13,556.581c0.496-0.296,0.848-0.731,1.056-1.308v-1.32h-2.568
		c-1.536,0-2.304,0.504-2.304,1.513c0,0.479,0.188,0.86,0.564,1.14c0.375,0.28,0.892,0.42,1.548,0.42
		C117.065,557.025,117.634,556.878,118.13,556.581z"/>
	<path fill="#E79D23" d="M139.609,541.546v17.808h-3.576v-1.488c-0.928,1.12-2.272,1.681-4.032,1.681
		c-1.216,0-2.316-0.272-3.3-0.816c-0.984-0.544-1.756-1.32-2.316-2.328s-0.84-2.176-0.84-3.504s0.28-2.496,0.84-3.504
		s1.332-1.784,2.316-2.328c0.984-0.544,2.083-0.815,3.3-0.815c1.648,0,2.936,0.52,3.864,1.56v-6.264H139.609z M135.001,555.502
		c0.624-0.648,0.936-1.517,0.936-2.604s-0.312-1.956-0.936-2.604c-0.624-0.648-1.408-0.973-2.352-0.973
		c-0.96,0-1.752,0.324-2.376,0.973c-0.624,0.647-0.936,1.516-0.936,2.604s0.312,1.956,0.936,2.604
		c0.624,0.647,1.416,0.972,2.376,0.972C133.593,556.474,134.377,556.149,135.001,555.502z"/>
	<path fill="#E79D23" d="M152.881,547.678c1.072,0.952,1.608,2.388,1.608,4.308v7.368h-3.504v-1.608
		c-0.704,1.2-2.016,1.801-3.936,1.801c-0.992,0-1.852-0.168-2.58-0.504c-0.728-0.337-1.284-0.801-1.668-1.393
		c-0.384-0.592-0.576-1.264-0.576-2.016c0-1.2,0.452-2.145,1.356-2.832c0.904-0.688,2.3-1.032,4.188-1.032h2.976
		c0-0.816-0.249-1.443-0.744-1.884c-0.496-0.44-1.24-0.66-2.232-0.66c-0.688,0-1.364,0.108-2.028,0.324s-1.228,0.508-1.692,0.876
		l-1.344-2.616c0.704-0.496,1.548-0.88,2.532-1.152c0.984-0.271,1.996-0.407,3.036-0.407
		C150.273,546.25,151.809,546.726,152.881,547.678z M149.689,556.581c0.496-0.296,0.848-0.731,1.056-1.308v-1.32h-2.568
		c-1.536,0-2.304,0.504-2.304,1.513c0,0.479,0.188,0.86,0.564,1.14c0.375,0.28,0.892,0.42,1.548,0.42
		C148.625,557.025,149.193,556.878,149.689,556.581z"/>
	<path fill="#E79D23" d="M168.781,547.077c0.984,0.553,1.755,1.329,2.316,2.328c0.56,1,0.84,2.164,0.84,3.492
		s-0.28,2.492-0.84,3.492c-0.561,1-1.332,1.775-2.316,2.328c-0.984,0.552-2.076,0.828-3.276,0.828c-1.648,0-2.944-0.521-3.888-1.561
		v6.024h-3.744v-17.568h3.576v1.488c0.928-1.12,2.28-1.68,4.056-1.68C166.705,546.25,167.796,546.525,168.781,547.077z
		 M167.221,555.502c0.616-0.648,0.924-1.517,0.924-2.604s-0.308-1.956-0.924-2.604c-0.616-0.648-1.404-0.973-2.364-0.973
		s-1.748,0.324-2.364,0.973c-0.616,0.647-0.924,1.516-0.924,2.604s0.308,1.956,0.924,2.604c0.616,0.647,1.404,0.972,2.364,0.972
		S166.604,556.149,167.221,555.502z"/>
	<path fill="#E79D23" d="M182.761,558.729c-0.368,0.272-0.82,0.477-1.356,0.612c-0.537,0.136-1.101,0.204-1.692,0.204
		c-1.536,0-2.724-0.393-3.564-1.177c-0.84-0.783-1.26-1.936-1.26-3.456v-5.304h-1.992v-2.88h1.992v-3.144h3.744v3.144h3.216v2.88
		h-3.216v5.256c0,0.544,0.14,0.965,0.42,1.261c0.28,0.296,0.676,0.443,1.188,0.443c0.592,0,1.096-0.159,1.512-0.479L182.761,558.729
		z"/>
	<path fill="#E79D23" d="M197.041,553.953h-9.768c0.176,0.801,0.592,1.433,1.248,1.896c0.656,0.464,1.472,0.696,2.448,0.696
		c0.672,0,1.268-0.101,1.788-0.301c0.52-0.199,1.004-0.516,1.452-0.947l1.992,2.159c-1.216,1.393-2.992,2.089-5.328,2.089
		c-1.457,0-2.745-0.284-3.864-0.853c-1.12-0.567-1.984-1.355-2.592-2.364c-0.608-1.008-0.912-2.151-0.912-3.432
		c0-1.264,0.3-2.403,0.9-3.42c0.6-1.016,1.424-1.808,2.472-2.376c1.048-0.567,2.22-0.852,3.516-0.852
		c1.264,0,2.408,0.271,3.432,0.815s1.828,1.324,2.412,2.34c0.584,1.017,0.876,2.196,0.876,3.54
		C197.112,552.993,197.088,553.329,197.041,553.953z M188.28,549.802c-0.576,0.479-0.928,1.136-1.056,1.968h6.36
		c-0.128-0.816-0.48-1.468-1.056-1.956s-1.28-0.732-2.112-0.732C189.568,549.081,188.856,549.321,188.28,549.802z"/>
	<path fill="#E79D23" d="M204.997,546.729c0.76-0.32,1.636-0.479,2.628-0.479v3.455c-0.417-0.031-0.696-0.048-0.84-0.048
		c-1.072,0-1.912,0.3-2.52,0.9c-0.608,0.6-0.912,1.5-0.912,2.7v6.096h-3.744v-12.912h3.576v1.704
		C203.632,547.521,204.236,547.05,204.997,546.729z"/>
</g>
<g>
	<path fill="#E79D23" d="M675.835,400.232v3.12h-13.008v-16.8h12.696v3.12h-8.832v3.647h7.799v3.024h-7.799v3.888H675.835z"/>
	<path fill="#E79D23" d="M684.211,398.288l-1.801,1.776v3.288h-3.744v-17.808h3.744v10.08l5.473-5.185h4.464l-5.376,5.472
		l5.855,7.44h-4.535L684.211,398.288z"/>
	<path fill="#E79D23" d="M695.275,403.148c-1.025-0.264-1.841-0.596-2.449-0.996l1.248-2.688c0.576,0.368,1.272,0.668,2.088,0.899
		c0.816,0.232,1.616,0.349,2.4,0.349c1.584,0,2.376-0.393,2.376-1.177c0-0.367-0.216-0.632-0.647-0.792
		c-0.432-0.159-1.097-0.296-1.992-0.407c-1.057-0.16-1.928-0.345-2.616-0.553c-0.688-0.207-1.284-0.575-1.788-1.104
		s-0.756-1.28-0.756-2.256c0-0.816,0.236-1.54,0.708-2.172s1.159-1.124,2.063-1.477c0.904-0.352,1.973-0.527,3.205-0.527
		c0.912,0,1.819,0.1,2.724,0.3c0.903,0.2,1.651,0.476,2.243,0.828l-1.248,2.664c-1.136-0.641-2.375-0.961-3.719-0.961
		c-0.801,0-1.4,0.112-1.801,0.337c-0.4,0.224-0.6,0.512-0.6,0.863c0,0.4,0.216,0.681,0.648,0.84c0.432,0.16,1.119,0.313,2.063,0.456
		c1.056,0.177,1.92,0.364,2.592,0.564c0.673,0.2,1.256,0.563,1.752,1.092s0.744,1.265,0.744,2.208c0,0.801-0.239,1.512-0.72,2.136
		s-1.18,1.108-2.1,1.452c-0.921,0.344-2.013,0.517-3.277,0.517C697.347,403.545,696.299,403.412,695.275,403.148z"/>
	<path fill="#E79D23" d="M715.146,402.729c-0.368,0.272-0.82,0.477-1.355,0.612c-0.537,0.136-1.102,0.204-1.693,0.204
		c-1.535,0-2.723-0.393-3.563-1.177c-0.84-0.783-1.26-1.936-1.26-3.456v-5.304h-1.992v-2.88h1.992v-3.144h3.744v3.144h3.216v2.88
		h-3.216v5.256c0,0.544,0.14,0.965,0.42,1.261s0.676,0.443,1.188,0.443c0.592,0,1.096-0.159,1.512-0.479L715.146,402.729z"/>
	<path fill="#E79D23" d="M729.427,397.952h-9.769c0.176,0.801,0.592,1.433,1.248,1.896s1.473,0.696,2.448,0.696
		c0.672,0,1.269-0.101,1.788-0.301c0.52-0.199,1.004-0.516,1.452-0.947l1.991,2.159c-1.215,1.393-2.992,2.089-5.327,2.089
		c-1.456,0-2.745-0.284-3.864-0.853c-1.12-0.567-1.984-1.355-2.592-2.364c-0.608-1.008-0.912-2.151-0.912-3.432
		c0-1.264,0.3-2.403,0.9-3.42c0.6-1.016,1.424-1.808,2.472-2.376c1.048-0.567,2.22-0.852,3.516-0.852
		c1.265,0,2.408,0.271,3.433,0.815c1.023,0.544,1.827,1.324,2.412,2.34c0.584,1.017,0.875,2.196,0.875,3.54
		C729.498,396.992,729.475,397.328,729.427,397.952z M720.666,393.801c-0.576,0.479-0.928,1.136-1.056,1.968h6.36
		c-0.129-0.816-0.48-1.468-1.057-1.956s-1.279-0.732-2.111-0.732C721.954,393.08,721.242,393.32,720.666,393.801z"/>
	<path fill="#E79D23" d="M737.383,390.729c0.76-0.32,1.636-0.479,2.628-0.479v3.455c-0.417-0.031-0.696-0.048-0.841-0.048
		c-1.071,0-1.912,0.3-2.52,0.9c-0.607,0.6-0.912,1.5-0.912,2.7v6.096h-3.744V390.44h3.576v1.704
		C736.019,391.521,736.623,391.049,737.383,390.729z"/>
	<path fill="#E79D23" d="M753.967,391.688c0.984,0.96,1.477,2.385,1.477,4.272v7.392h-3.744v-6.816c0-1.023-0.225-1.787-0.672-2.292
		c-0.449-0.504-1.097-0.756-1.945-0.756c-0.943,0-1.695,0.292-2.256,0.876c-0.56,0.585-0.84,1.452-0.84,2.604v6.384h-3.744V390.44
		h3.576v1.512c0.496-0.543,1.112-0.963,1.848-1.26c0.736-0.296,1.545-0.443,2.425-0.443
		C751.69,390.249,752.982,390.729,753.967,391.688z"/>
	<path fill="#E79D23" d="M776.526,391.076c0.983,0.553,1.755,1.329,2.315,2.328c0.561,1,0.84,2.164,0.84,3.492
		s-0.279,2.492-0.84,3.492s-1.332,1.775-2.315,2.328c-0.984,0.552-2.076,0.828-3.276,0.828c-1.775,0-3.128-0.561-4.056-1.681v1.488
		h-3.576v-17.808h3.744v6.264c0.944-1.04,2.239-1.56,3.888-1.56C774.45,390.249,775.542,390.524,776.526,391.076z M774.967,399.501
		c0.615-0.648,0.924-1.517,0.924-2.604s-0.309-1.956-0.924-2.604c-0.617-0.648-1.404-0.973-2.365-0.973
		c-0.959,0-1.748,0.324-2.363,0.973c-0.616,0.647-0.924,1.516-0.924,2.604s0.308,1.956,0.924,2.604
		c0.615,0.647,1.404,0.972,2.363,0.972C773.563,400.473,774.35,400.148,774.967,399.501z"/>
	<path fill="#E79D23" d="M784.662,402.692c-1.08-0.567-1.924-1.355-2.532-2.364c-0.608-1.008-0.912-2.151-0.912-3.432
		s0.304-2.424,0.912-3.432c0.608-1.009,1.452-1.796,2.532-2.364c1.08-0.567,2.299-0.852,3.66-0.852c1.359,0,2.575,0.284,3.647,0.852
		c1.071,0.568,1.911,1.355,2.521,2.364c0.607,1.008,0.912,2.151,0.912,3.432s-0.305,2.424-0.912,3.432
		c-0.609,1.009-1.449,1.797-2.521,2.364c-1.072,0.568-2.288,0.853-3.647,0.853C786.961,403.545,785.742,403.261,784.662,402.692z
		 M790.686,399.501c0.615-0.648,0.924-1.517,0.924-2.604s-0.309-1.956-0.924-2.604c-0.615-0.648-1.404-0.973-2.363-0.973
		c-0.961,0-1.752,0.324-2.377,0.973c-0.623,0.647-0.936,1.516-0.936,2.604s0.313,1.956,0.936,2.604
		c0.625,0.647,1.416,0.972,2.377,0.972C789.281,400.473,790.07,400.148,790.686,399.501z"/>
	<path fill="#E79D23" d="M803.441,398.288l-1.799,1.776v3.288h-3.744v-17.808h3.744v10.08l5.471-5.185h4.465l-5.376,5.472
		l5.856,7.44h-4.537L803.441,398.288z"/>
	<path fill="#E79D23" d="M814.506,403.148c-1.024-0.264-1.84-0.596-2.448-0.996l1.248-2.688c0.576,0.368,1.272,0.668,2.088,0.899
		c0.815,0.232,1.616,0.349,2.399,0.349c1.584,0,2.377-0.393,2.377-1.177c0-0.367-0.217-0.632-0.648-0.792
		c-0.432-0.159-1.096-0.296-1.992-0.407c-1.056-0.16-1.928-0.345-2.615-0.553c-0.688-0.207-1.285-0.575-1.789-1.104
		s-0.756-1.28-0.756-2.256c0-0.816,0.236-1.54,0.709-2.172c0.471-0.632,1.159-1.124,2.063-1.477
		c0.903-0.352,1.972-0.527,3.204-0.527c0.912,0,1.82,0.1,2.725,0.3c0.902,0.2,1.651,0.476,2.243,0.828l-1.248,2.664
		c-1.136-0.641-2.376-0.961-3.72-0.961c-0.801,0-1.4,0.112-1.801,0.337c-0.399,0.224-0.6,0.512-0.6,0.863
		c0,0.4,0.217,0.681,0.648,0.84c0.432,0.16,1.119,0.313,2.064,0.456c1.056,0.177,1.92,0.364,2.592,0.564s1.256,0.563,1.752,1.092
		s0.744,1.265,0.744,2.208c0,0.801-0.24,1.512-0.721,2.136s-1.18,1.108-2.1,1.452s-2.012,0.517-3.276,0.517
		C816.578,403.545,815.529,403.412,814.506,403.148z"/>
</g>
<g>
	<path fill="#E79D23" d="M245.169,371.318h-5.376v-3.168h14.64v3.168h-5.376v13.632h-3.888V371.318z"/>
	<path fill="#E79D23" d="M261.357,372.326c0.76-0.32,1.636-0.479,2.628-0.479v3.455c-0.417-0.031-0.696-0.048-0.84-0.048
		c-1.072,0-1.912,0.3-2.52,0.9c-0.608,0.6-0.912,1.5-0.912,2.7v6.096h-3.744v-12.912h3.576v1.704
		C259.993,373.118,260.597,372.646,261.357,372.326z"/>
	<path fill="#E79D23" d="M275.961,373.274c1.072,0.952,1.608,2.388,1.608,4.308v7.368h-3.504v-1.608
		c-0.704,1.2-2.016,1.801-3.936,1.801c-0.992,0-1.852-0.168-2.58-0.504c-0.728-0.337-1.284-0.801-1.668-1.393
		c-0.384-0.592-0.576-1.264-0.576-2.016c0-1.2,0.452-2.145,1.356-2.832c0.904-0.688,2.3-1.032,4.188-1.032h2.976
		c0-0.816-0.249-1.443-0.744-1.884c-0.496-0.44-1.24-0.66-2.232-0.66c-0.688,0-1.364,0.108-2.028,0.324s-1.228,0.508-1.692,0.876
		l-1.344-2.616c0.704-0.496,1.548-0.88,2.532-1.152c0.984-0.271,1.996-0.407,3.036-0.407
		C273.354,371.847,274.889,372.322,275.961,373.274z M272.77,382.178c0.496-0.296,0.848-0.731,1.056-1.308v-1.32h-2.568
		c-1.536,0-2.304,0.504-2.304,1.513c0,0.479,0.188,0.86,0.564,1.14c0.375,0.28,0.892,0.42,1.548,0.42
		C271.705,382.622,272.273,382.475,272.77,382.178z"/>
	<path fill="#E79D23" d="M285.058,372.326h3.312v2.88h-3.216v9.744h-3.744v-9.744h-1.992v-2.88h1.992v-0.576
		c0-1.472,0.436-2.64,1.308-3.504c0.872-0.864,2.1-1.296,3.684-1.296c0.56,0,1.092,0.06,1.596,0.18s0.924,0.292,1.26,0.517
		l-0.984,2.712c-0.432-0.304-0.936-0.456-1.512-0.456c-1.136,0-1.704,0.624-1.704,1.872V372.326z"/>
	<path fill="#E79D23" d="M292.558,384.29c-1.08-0.567-1.924-1.355-2.532-2.364c-0.608-1.008-0.912-2.151-0.912-3.432
		s0.304-2.424,0.912-3.432c0.608-1.009,1.452-1.796,2.532-2.364c1.08-0.567,2.3-0.852,3.66-0.852c1.36,0,2.576,0.284,3.648,0.852
		c1.072,0.568,1.912,1.355,2.52,2.364c0.608,1.008,0.912,2.151,0.912,3.432s-0.304,2.424-0.912,3.432
		c-0.608,1.009-1.448,1.797-2.52,2.364c-1.072,0.568-2.288,0.853-3.648,0.853C294.857,385.143,293.638,384.858,292.558,384.29z
		 M298.582,381.099c0.616-0.648,0.924-1.517,0.924-2.604s-0.309-1.956-0.924-2.604c-0.616-0.648-1.404-0.973-2.364-0.973
		s-1.752,0.324-2.376,0.973c-0.624,0.647-0.936,1.516-0.936,2.604s0.312,1.956,0.936,2.604c0.624,0.647,1.416,0.972,2.376,0.972
		S297.966,381.746,298.582,381.099z"/>
	<path fill="#E79D23" d="M311.217,371.895l2.616,1.416l-1.176,1.968l-2.64-1.561l0.048,2.904h-2.256l0.024-2.928l-2.64,1.584
		l-1.152-1.968l2.616-1.416l-2.616-1.44l1.152-1.968l2.64,1.584l-0.024-2.928h2.256l-0.048,2.928l2.64-1.584l1.176,1.968
		L311.217,371.895z"/>
</g>
<g>
	<path fill="#262626" d="M465.992,442.534h3.888v13.632h8.424v3.168h-12.312V442.534z"/>
	<path fill="#262626" d="M490.184,447.658c1.072,0.952,1.608,2.388,1.608,4.308v7.368h-3.504v-1.608
		c-0.705,1.2-2.017,1.801-3.937,1.801c-0.992,0-1.852-0.168-2.58-0.504c-0.729-0.337-1.284-0.801-1.668-1.393
		s-0.576-1.264-0.576-2.016c0-1.2,0.452-2.145,1.356-2.832c0.903-0.688,2.3-1.032,4.188-1.032h2.977
		c0-0.816-0.248-1.443-0.744-1.884s-1.24-0.66-2.232-0.66c-0.688,0-1.364,0.108-2.027,0.324c-0.664,0.216-1.229,0.508-1.692,0.876
		l-1.344-2.616c0.704-0.496,1.548-0.88,2.532-1.152c0.983-0.271,1.995-0.407,3.035-0.407
		C487.575,446.23,489.111,446.706,490.184,447.658z M483.836,444.286c-0.568-0.56-0.853-1.248-0.853-2.064
		c0-0.815,0.284-1.504,0.853-2.063c0.567-0.561,1.268-0.84,2.1-0.84c0.848,0,1.561,0.279,2.136,0.84
		c0.576,0.56,0.864,1.248,0.864,2.063c0,0.816-0.288,1.505-0.864,2.064c-0.575,0.561-1.288,0.84-2.136,0.84
		C485.104,445.126,484.403,444.847,483.836,444.286z M486.991,456.562c0.496-0.296,0.849-0.731,1.057-1.308v-1.32h-2.568
		c-1.536,0-2.304,0.504-2.304,1.513c0,0.479,0.188,0.86,0.563,1.14c0.376,0.28,0.893,0.42,1.549,0.42
		C485.928,457.006,486.495,456.858,486.991,456.562z M486.979,443.266c0.28-0.279,0.42-0.627,0.42-1.044
		c0-0.416-0.14-0.764-0.42-1.044c-0.28-0.279-0.628-0.42-1.044-0.42c-0.4,0-0.74,0.141-1.02,0.42c-0.28,0.28-0.42,0.628-0.42,1.044
		c0,0.417,0.136,0.765,0.407,1.044c0.272,0.28,0.616,0.42,1.032,0.42S486.699,443.546,486.979,443.266z"/>
	<path fill="#262626" d="M496.375,459.13c-1.023-0.264-1.84-0.596-2.447-0.996l1.247-2.688c0.576,0.368,1.272,0.668,2.089,0.899
		c0.815,0.232,1.615,0.349,2.399,0.349c1.584,0,2.376-0.393,2.376-1.177c0-0.367-0.216-0.632-0.647-0.792
		c-0.433-0.159-1.097-0.296-1.992-0.407c-1.056-0.16-1.929-0.345-2.616-0.553c-0.688-0.207-1.284-0.575-1.788-1.104
		s-0.756-1.28-0.756-2.256c0-0.816,0.236-1.54,0.708-2.172s1.16-1.124,2.064-1.477c0.903-0.352,1.972-0.527,3.203-0.527
		c0.912,0,1.82,0.1,2.725,0.3c0.903,0.2,1.651,0.476,2.244,0.828l-1.248,2.664c-1.137-0.641-2.376-0.961-3.721-0.961
		c-0.8,0-1.399,0.112-1.8,0.337c-0.399,0.224-0.6,0.512-0.6,0.863c0,0.4,0.216,0.681,0.647,0.84c0.433,0.16,1.12,0.313,2.064,0.456
		c1.056,0.177,1.92,0.364,2.592,0.564s1.256,0.563,1.752,1.092s0.744,1.265,0.744,2.208c0,0.801-0.24,1.512-0.72,2.136
		c-0.48,0.624-1.181,1.108-2.101,1.452s-2.012,0.517-3.275,0.517C498.447,459.526,497.399,459.394,496.375,459.13z"/>
</g>
<rect x="85.26" y="386.079" fill="#262626" width="71.916" height="29.75"/>
<g>
	<path fill="#E79D23" d="M71.774,391.973v16.8h-3.888v-6.888h-7.632v6.888h-3.888v-16.8h3.888v6.624h7.632v-6.624H71.774z"/>
	<path fill="#E79D23" d="M77.978,408.112c-1.08-0.567-1.924-1.355-2.532-2.364c-0.608-1.008-0.912-2.151-0.912-3.432
		s0.304-2.424,0.912-3.432c0.608-1.009,1.452-1.796,2.532-2.364c1.08-0.567,2.3-0.852,3.66-0.852c1.36,0,2.576,0.284,3.648,0.852
		c1.072,0.568,1.912,1.355,2.52,2.364c0.608,1.008,0.912,2.151,0.912,3.432s-0.304,2.424-0.912,3.432
		c-0.608,1.009-1.448,1.797-2.52,2.364c-1.072,0.568-2.288,0.853-3.648,0.853C80.278,408.965,79.058,408.681,77.978,408.112z
		 M84.002,404.921c0.616-0.648,0.924-1.517,0.924-2.604s-0.309-1.956-0.924-2.604c-0.616-0.648-1.404-0.973-2.364-0.973
		s-1.752,0.324-2.376,0.973c-0.624,0.647-0.936,1.516-0.936,2.604s0.312,1.956,0.936,2.604c0.624,0.647,1.416,0.972,2.376,0.972
		S83.386,405.568,84.002,404.921z"/>
	<path fill="#E79D23" d="M103.67,395.86l-5.448,12.912h-3.864l-5.424-12.912h3.864l3.576,8.784l3.696-8.784H103.67z"/>
	<path fill="#E79D23" d="M117.422,403.372h-9.768c0.176,0.801,0.592,1.433,1.248,1.896c0.656,0.464,1.472,0.696,2.448,0.696
		c0.672,0,1.268-0.101,1.788-0.301c0.52-0.199,1.004-0.516,1.452-0.947l1.992,2.159c-1.216,1.393-2.992,2.089-5.328,2.089
		c-1.457,0-2.745-0.284-3.864-0.853c-1.12-0.567-1.984-1.355-2.592-2.364c-0.608-1.008-0.912-2.151-0.912-3.432
		c0-1.264,0.3-2.403,0.9-3.42c0.6-1.016,1.424-1.808,2.472-2.376c1.048-0.567,2.22-0.852,3.516-0.852
		c1.264,0,2.408,0.271,3.432,0.815s1.828,1.324,2.412,2.34c0.584,1.017,0.876,2.196,0.876,3.54
		C117.494,402.412,117.47,402.748,117.422,403.372z M108.662,399.221c-0.576,0.479-0.928,1.136-1.056,1.968h6.36
		c-0.128-0.816-0.48-1.468-1.056-1.956s-1.28-0.732-2.112-0.732C109.949,398.5,109.238,398.74,108.662,399.221z"/>
	<path fill="#E79D23" d="M133.142,390.965v17.808h-3.576v-1.488c-0.928,1.12-2.272,1.681-4.032,1.681
		c-1.216,0-2.316-0.272-3.3-0.816c-0.984-0.544-1.756-1.32-2.316-2.328s-0.84-2.176-0.84-3.504s0.28-2.496,0.84-3.504
		s1.332-1.784,2.316-2.328c0.984-0.544,2.083-0.815,3.3-0.815c1.648,0,2.936,0.52,3.864,1.56v-6.264H133.142z M128.534,404.921
		c0.624-0.648,0.936-1.517,0.936-2.604s-0.312-1.956-0.936-2.604c-0.624-0.648-1.408-0.973-2.352-0.973
		c-0.96,0-1.752,0.324-2.376,0.973c-0.624,0.647-0.936,1.516-0.936,2.604s0.312,1.956,0.936,2.604
		c0.624,0.647,1.416,0.972,2.376,0.972C127.125,405.893,127.91,405.568,128.534,404.921z"/>
	<path fill="#E79D23" d="M147.505,396.496c0.984,0.553,1.755,1.329,2.316,2.328c0.56,1,0.84,2.164,0.84,3.492
		s-0.28,2.492-0.84,3.492c-0.561,1-1.332,1.775-2.316,2.328c-0.984,0.552-2.076,0.828-3.276,0.828c-1.776,0-3.128-0.561-4.056-1.681
		v1.488h-3.576v-17.808h3.744v6.264c0.944-1.04,2.24-1.56,3.888-1.56C145.429,395.669,146.521,395.944,147.505,396.496z
		 M145.945,404.921c0.616-0.648,0.924-1.517,0.924-2.604s-0.308-1.956-0.924-2.604c-0.616-0.648-1.404-0.973-2.364-0.973
		s-1.748,0.324-2.364,0.973c-0.616,0.647-0.924,1.516-0.924,2.604s0.308,1.956,0.924,2.604c0.616,0.647,1.404,0.972,2.364,0.972
		S145.329,405.568,145.945,404.921z"/>
	<path fill="#E79D23" d="M155.641,408.112c-1.08-0.567-1.924-1.355-2.532-2.364c-0.608-1.008-0.912-2.151-0.912-3.432
		s0.304-2.424,0.912-3.432c0.608-1.009,1.452-1.796,2.532-2.364c1.08-0.567,2.3-0.852,3.66-0.852c1.36,0,2.576,0.284,3.648,0.852
		c1.072,0.568,1.912,1.355,2.52,2.364c0.608,1.008,0.912,2.151,0.912,3.432s-0.304,2.424-0.912,3.432
		c-0.608,1.009-1.448,1.797-2.52,2.364c-1.072,0.568-2.288,0.853-3.648,0.853C157.941,408.965,156.721,408.681,155.641,408.112z
		 M161.665,404.921c0.616-0.648,0.924-1.517,0.924-2.604s-0.309-1.956-0.924-2.604c-0.616-0.648-1.404-0.973-2.364-0.973
		s-1.752,0.324-2.376,0.973c-0.624,0.647-0.936,1.516-0.936,2.604s0.312,1.956,0.936,2.604c0.624,0.647,1.416,0.972,2.376,0.972
		S161.049,405.568,161.665,404.921z"/>
	<path fill="#E79D23" d="M174.421,403.708l-1.8,1.776v3.288h-3.744v-17.808h3.744v10.08l5.472-5.185h4.464l-5.376,5.472l5.856,7.44
		h-4.536L174.421,403.708z"/>
	<path fill="#E79D23" d="M185.485,408.568c-1.024-0.264-1.84-0.596-2.448-0.996l1.248-2.688c0.576,0.368,1.272,0.668,2.088,0.899
		c0.816,0.232,1.616,0.349,2.4,0.349c1.584,0,2.376-0.393,2.376-1.177c0-0.367-0.216-0.632-0.648-0.792
		c-0.432-0.159-1.096-0.296-1.992-0.407c-1.056-0.16-1.928-0.345-2.616-0.553c-0.688-0.207-1.284-0.575-1.788-1.104
		s-0.756-1.28-0.756-2.256c0-0.816,0.236-1.54,0.708-2.172c0.472-0.632,1.16-1.124,2.064-1.477c0.904-0.352,1.972-0.527,3.204-0.527
		c0.912,0,1.82,0.1,2.724,0.3c0.903,0.2,1.652,0.476,2.244,0.828l-1.248,2.664c-1.136-0.641-2.376-0.961-3.72-0.961
		c-0.8,0-1.4,0.112-1.8,0.337c-0.4,0.224-0.6,0.512-0.6,0.863c0,0.4,0.216,0.681,0.648,0.84c0.432,0.16,1.12,0.313,2.064,0.456
		c1.056,0.177,1.92,0.364,2.592,0.564c0.672,0.2,1.256,0.563,1.752,1.092s0.744,1.265,0.744,2.208c0,0.801-0.24,1.512-0.72,2.136
		c-0.48,0.624-1.18,1.108-2.1,1.452c-0.92,0.344-2.012,0.517-3.276,0.517C187.557,408.965,186.509,408.832,185.485,408.568z"/>
</g>
</svg>
