<?xml version="1.0" encoding="utf-8"?>
<!-- Generator: Adobe Illustrator 21.1.0, SVG Export Plug-In . SVG Version: 6.00 Build 0)  -->
<svg version="1.1" id="Layer_1" xmlns="http://www.w3.org/2000/svg" xmlns:xlink="http://www.w3.org/1999/xlink" x="0px" y="0px"
	 viewBox="0 0 100 100" style="enable-background:new 0 0 100 100;" xml:space="preserve">
<style type="text/css">
	.st0{fill:#2276AC;}
	.st1{fill:#FFFFFF;}
</style>
<circle class="st0" cx="49.9" cy="49.9" r="49.2"/>
<g>
	<path class="st1" d="M36.8,38.7c-2.1,0-3.6-2-3-4c0.8-2.7,2.3-5,4.4-6.8c3-2.7,6.9-4,11.5-4c4.9,0,8.9,1.3,11.9,3.9
		c3,2.6,4.6,6,4.6,10c0,2.3-0.5,4.4-1.6,6.4c-1,2-3,4.1-5.9,6.5c-2.9,2.4-4.6,4.3-5.3,5.7c-0.4,1-0.7,2.3-0.9,4.1
		c-0.1,1.6-1.4,2.9-3.1,2.9h0c-1.8,0-3.2-1.5-3.1-3.3c0.2-2.7,0.7-4.8,1.4-6.3c1-2,2.9-4.2,5.6-6.5c2.7-2.3,4.4-4,5-5.3
		c0.7-1.2,1-2.5,1-3.9c0-2.7-0.9-4.9-2.7-6.6c-1.8-1.7-4.1-2.6-7-2.6c-4.9,0-8,2.5-9.4,7.4c-0.4,1.3-1.6,2.3-3,2.3H36.8z M49.6,76
		L49.6,76c-2,0-3.6-1.6-3.6-3.6v0c0-2,1.6-3.6,3.6-3.6h0c2,0,3.6,1.6,3.6,3.6v0C53.2,74.4,51.6,76,49.6,76z"/>
</g>
</svg>
