<svg xmlns="http://www.w3.org/2000/svg" viewBox="0 0 61 61"><path fill="#9D9D9C" d="M0 41.3v14.8C0 58.8 2.2 61 4.9 61h51.3c2.7 0 4.9-2.2 4.9-4.9V41.3H0z"/><path fill="#FFD600" d="M56.1 0H4.9C2.2 0 0 2.2 0 4.9v36.5h61V4.9C61 2.2 58.8 0 56.1 0z"/><path fill="#262626" d="M53 20.1c.4 0 .7-.3.7-.7v-3.5c0-.4-.3-.7-.7-.7H39.8c-.4 0-.7.3-.7.7v3.5c0 .4.3.7.7.7H53z"/><path fill="#262626" d="M33.1 14.6c0-3 2.5-5.5 5.5-5.5h14.5c.4 0 .7.3.7.7v3.5c0 .4-.3.7-.7.7H39.8c-.9 0-1.7.8-1.7 1.7v15.6c0 .4-.3.7-.7.7h-3.5c-.4 0-.7-.3-.7-.7l-.1-16.7zM19.8 15.4c.4-.7 1.2-1.3 2.1-1.3h3.5c.9 0 1.7.8 1.7 1.7v15.6c0 .4.3.7.7.7h3.5c.4 0 .7-.3.7-.7V14.6c0-3-2.5-5.5-5.5-5.5h-4.8c-2.8 0-5.3 1.6-6.5 3.9L5.3 31.1c-.1.1-.1.2-.1.3 0 .4.3.7.7.7H10c.3 0 .5-.2.6-.4l9.2-16.3z"/><path fill="#262626" d="M12.1 31.1c-.1.1-.1.2-.1.3 0 .4.3.7.7.7h4.1c.3 0 .5-.2.6-.4l6.3-11.3c.1-.2.4-.4.6-.4h1c.4 0 .7-.3.7-.7v-3.5c0-.4-.3-.7-.7-.7h-3.5c-.6 0-1.1.3-1.3.8l-8.4 15.2z"/><g fill="#FFF"><path d="M8.9 52.6l-.3 1.7h-1L9 47.7h1.2l1.3 6.5h-1l-.3-1.7H8.9zm1.2-.8l-.3-1.5c-.1-.4-.2-1-.2-1.5-.1.5-.2 1.1-.2 1.5L9 51.8h1.1zM13 47.7h2.7v.9H14v2h1.5v.9H14v2.8h-1v-6.6zM22.5 54.1c-.3.1-.8.2-1.3.2-.7 0-1.2-.2-1.7-.6-.5-.5-.8-1.5-.8-2.6 0-2.5 1.4-3.4 2.6-3.4.5 0 .8.1 1 .2l-.2.9c-.2-.1-.4-.2-.7-.2-.8 0-1.6.6-1.6 2.5 0 1.8.7 2.4 1.4 2.4h.3v-1.8h-.7v-.9h1.7v3.3zM24.3 47.8c.4-.1.8-.1 1.2-.1.7 0 1.2.1 1.6.5.4.3.5.8.5 1.3 0 .8-.4 1.3-1 1.6.5.2.7.6.8 1.4.1.8.3 1.5.4 1.7h-1.1c-.1-.2-.2-.8-.3-1.6-.1-.9-.4-1.1-.9-1.1h-.2v2.7h-1v-6.4zm1 3h.3c.6 0 1-.5 1-1.2 0-.6-.3-1.1-.9-1.1h-.3v2.3zM30.3 47.7V52c0 1.1.3 1.4.7 1.4.5 0 .8-.3.8-1.4v-4.3h1v4.1c0 1.7-.7 2.5-1.8 2.5-1.2 0-1.8-.8-1.8-2.4v-4.2h1.1zM34.6 47.8c.3-.1.8-.1 1.2-.1.7 0 1.3.1 1.6.5.3.3.5.8.5 1.4 0 .7-.2 1.1-.5 1.5-.4.5-1 .7-1.6.7h-.3v2.6h-1v-6.6zm1.1 3.1h.3c.7 0 1.1-.5 1.1-1.2 0-.6-.3-1.1-1-1.1h-.4v2.3zM39.5 47.8c.3-.1.8-.1 1.2-.1.7 0 1.3.1 1.6.5.3.3.5.8.5 1.4 0 .7-.2 1.1-.5 1.5-.4.5-1 .7-1.6.7h-.3v2.6h-1v-6.6zm1 3.1h.3c.7 0 1.1-.5 1.1-1.2 0-.6-.3-1.1-1-1.1h-.4v2.3zM46.9 51.3h-1.6v2.1h1.8v.9h-2.8v-6.5H47v.9h-1.6v1.8H47v.8zM48.7 54.3v-6.5h1l1.1 2.8c.2.6.6 1.4.8 2.1-.1-.8-.1-1.8-.1-3v-1.9h.9v6.5h-1l-1.1-2.8c-.2-.6-.5-1.4-.7-2.1 0 .8.1 1.7.1 3v1.8h-1z"/></g></svg>