<svg xmlns="http://www.w3.org/2000/svg" width="345.491" height="128" viewBox="0 0 345.491 128"><title>logo</title><rect x="0.142" y="67.189" width="345.113" height="0.992"/><path d="M37.942,47.533V40.918c8.221,0,7.843-2.6,7.843-4.489V11.293c0-1.89.284-4.489-7.891-4.489V0L86.609.047c4.441.142,8.6,1.559,11.2,5.292,3.024,4.725,2.315,12.143-.709,16.632-5.717,6.52-16.4,5.764-26.743,5.764v8.552c0,1.843-.331,4.3,6.993,4.489h2.41v6.8ZM75.175,20.081c4.725,0,7.371-1.984,7.371-6.568,0-4.394-2.882-6.709-7.324-6.709H70.4V20.081Z" fill="#046c4d"/><path d="M100.642,47.533V40.918c8.221,0,7.8-2.6,7.8-4.489V32.744l.047-21.451c0-1.89.284-4.489-7.938-4.489V0l58.826.047V18.474H146.9v-8.6c0-3.4-1.229-3.118-4.725-3.118h-6.426c-3.5,0-4.725-.331-4.725,3.118l.047,6.9c0,3.4,1.229,3.118,4.725,3.118h5.1v7.843h-5.1c-3.5,0-4.725-.331-4.725,3.118l-.047,6.9c0,3.4,2.126,3.071,5.623,3.071h1.89a13.235,13.235,0,0,0,4.725-.472c1.04-.472,1.7-2.457,2.126-3.874l1.606-5.434h12.332V47.484Z" fill="#046c4d"/><path d="M183.9,34.067c-1.087,2.835-1.7,3.5-1.843,5.339A1.517,1.517,0,0,0,183,40.587c1.937.189,7.749.142,7.749.142v6.757H161.689V40.777c2.882.236,6-.047,7.749-2.315l1.323-2.268L184.369.048h30.854l16.348,35.579c.8,1.7,1.323,3.685,3.118,4.725,1.134.52,2.693.331,3.874.472,0,2.079.047,6.757.047,6.757H199.487V40.872c2.079,0,4.63,0,6.568-.189A1.594,1.594,0,0,0,207,39.5c-.142-1.843-.709-2.5-1.843-5.339H183.895m9.782-26.839L186.4,27.358h15.876Z" fill="#046c4d"/><path d="M277.735,20.081c4.725,0,7.371-1.984,7.371-6.568,0-4.394-2.882-6.709-7.324-6.709h-5.717V20.081Zm0,20.885c4.725,0,7.371-1.984,7.371-6.568,0-4.394-2.882-6.709-7.324-6.709h-5.717V40.966Zm-37.044,6.567V40.918c8.221,0,7.8-2.6,7.8-4.489l.047-25.09c0-1.89.283-4.489-7.938-4.489V.047h46.73c6.1,0,14.742,1.229,14.742,11.907,0,6.8-5.15,9.261-7.418,10.82,4.252,1.465,8.977,4.63,8.977,11.434,0,7.7-4.3,13.324-17.341,13.324H240.691Z" fill="#006c4f"/><path d="M301.927,46.73h43V38.367H307.408c-.8,3.685-1.89,6.615-5.481,8.363" fill="#ec6839"/><polygon points="41.911 25.893 0 25.893 0 34.209 41.911 34.209 41.911 33.122 41.911 25.893" fill="#e66632"/><path d="M307.786,34.209h37.138V25.846H304.667c2.079,1.89,3.024,4.583,3.119,8.363" fill="#e66632"/><path d="M301.265,21.688h43.659V13.372H306.037c-.661,4.488-2.456,6.851-4.772,8.316" fill="#e66632"/><rect y="13.372" width="41.958" height="8.316" fill="#e66632"/><path d="M40.54,7.8c-6.284-.284-6.946.8-6.946-6.946H0V9.166H41.863c-.141-.567-.33-1.37-1.323-1.37" fill="#e66632"/><path d="M40.54,40.021c-6.709.425-6.946-1.37-6.946,6.662H0V38.367H41.863c-.141.567-.33,1.654-1.323,1.654" fill="#e66632"/><path d="M344.924.851H301.738c3.307,2.315,3.733,3.922,4.3,8.316h38.887V.851Z" fill="#e66632"/><path d="M35.815,127.386H22.491L15.64,112.408l-4.111,5.812v9.166H.047V87.7H11.529v16.4L22.444,87.7H33.406L23.389,102.2Z"/><path d="M49.282,116.755v10.631H38.225V116.755Z"/><path d="M104.233,127.386H94.311l-10.867-17.53a64.929,64.929,0,0,1-4.205-8.174,26.371,26.371,0,0,1,.945,6.52v19.231H70.309V87.743H81.838L91.1,102.3A62.257,62.257,0,0,1,95.3,109.9a58.283,58.283,0,0,1-.945-10.4V87.743h9.922v39.643Z"/><path d="M128.283,128a17.955,17.955,0,0,1-13.655-5.575c-3.5-3.685-5.292-8.647-5.292-14.836,0-5.953,1.7-10.82,5.056-14.695s8.032-5.812,13.986-5.812a17.906,17.906,0,0,1,13.513,5.481c3.5,3.638,5.2,8.5,5.2,14.6,0,6.284-1.748,11.34-5.245,15.12A17.687,17.687,0,0,1,128.283,128Zm-.047-9.025a4.633,4.633,0,0,0,4.441-2.693c.9-1.795,1.37-5.056,1.37-9.828,0-6.9-1.843-10.348-5.575-10.348-3.969,0-6,3.922-6,11.812C122.472,115.29,124.409,118.975,128.236,118.975Z"/><path d="M187.582,127.386H174.069l-5.812-15.167H164.43v15.167H152.24V87.7h20.695c4.583,0,8.127,1.087,10.631,3.213a10.444,10.444,0,0,1,3.78,8.458,12.563,12.563,0,0,1-1.417,6.048c-.945,1.748-2.788,3.307-5.623,4.63ZM164.43,103.714h5.2a6.657,6.657,0,0,0,3.685-.945,3.161,3.161,0,0,0,1.37-2.835q0-3.827-4.678-3.827h-5.623v7.607Z"/><path d="M193.347,127.386V87.7H208.7c6.662,0,11.671,1.985,14.978,5.906a20.728,20.728,0,0,1,4.961,13.7c0,5.906-1.795,10.726-5.339,14.458s-8.174,5.575-13.844,5.575H193.347Zm12.143-9.119h3.166a6.107,6.107,0,0,0,5.1-2.929,13.687,13.687,0,0,0,2.079-7.985,14.452,14.452,0,0,0-1.843-7.465,5.877,5.877,0,0,0-5.339-3.118H205.49v21.5Z"/><path d="M254.3,127.386l-2.268-7.8H241.4l-2.363,7.8h-9.875L241.4,87.7h12.9l12.427,39.69ZM243.526,110.9h6.426l-3.213-11.482Z"/><path d="M304.337,127.386h-9.922l-10.867-17.53a64.8,64.8,0,0,1-4.2-8.174,26.371,26.371,0,0,1,.945,6.52v19.231h-9.875V87.743h11.529L291.2,102.3a56.469,56.469,0,0,1,4.2,7.607,58.282,58.282,0,0,1-.945-10.4V87.743h9.922l-.048,39.643Z"/><path d="M345.491,105.131v22.255h-5.953a23.907,23.907,0,0,0-1.607-4.158c-2.457,3.166-6.1,4.772-10.915,4.772a16.524,16.524,0,0,1-12.616-5.339c-3.307-3.591-4.961-8.41-4.961-14.506a23.587,23.587,0,0,1,4.772-14.978c3.166-4.016,7.938-6.048,14.222-6.048,4.725,0,8.552,1.181,11.434,3.591a17.017,17.017,0,0,1,5.623,10.206l-11.812,1.181c-.567-4.111-2.41-6.19-5.434-6.19-3.969,0-6,3.78-6,11.387,0,4.583.662,7.607,1.937,9.072a5.926,5.926,0,0,0,4.63,2.174,5.593,5.593,0,0,0,3.78-1.323,4.8,4.8,0,0,0,1.607-3.685h-6.568v-8.41Z"/></svg>