<?xml version="1.0" encoding="utf-8"?>
<!-- Generator: Adobe Illustrator 17.1.0, SVG Export Plug-In . SVG Version: 6.00 Build 0)  -->
<!DOCTYPE svg PUBLIC "-//W3C//DTD SVG 1.1//EN" "http://www.w3.org/Graphics/SVG/1.1/DTD/svg11.dtd">
<svg version="1.1" id="Layer_1" xmlns="http://www.w3.org/2000/svg" xmlns:xlink="http://www.w3.org/1999/xlink" x="0px" y="0px"
	 width="220px" height="110px" viewBox="0 0 220 110" enable-background="new 0 0 220 110" xml:space="preserve">
<g>
	<g>
		<path fill="#2B2620" d="M12.6,92.7l-6.4-8.5l-1.7,2v6.5H0V71.4h4.5v9.5l7.5-9.5h5.6l-8.5,10l9,11.3C18.1,92.7,12.6,92.7,12.6,92.7
			z"/>
		<path fill="#2B2620" d="M33.7,92.7l-1.3-3.6h-9.1L22,92.7h-5.2L25,71.4h5.7l8.2,21.3H33.7z M27.8,76l-3.3,9.2h6.6L27.8,76z"/>
		<path fill="#2B2620" d="M51.6,92.7l-4.2-7.6h-3.3v7.6h-4.5V71.4h9.9c4.4,0,7.1,2.9,7.1,6.9c0,3.8-2.4,5.8-4.7,6.3l4.8,8.1
			C56.7,92.7,51.6,92.7,51.6,92.7z M52,78.3c0-1.8-1.4-2.9-3.2-2.9H44v5.7h4.8C50.6,81.2,52,80.1,52,78.3z"/>
		<path fill="#2B2620" d="M58.8,92.7V71.4h4.5v17.3h9v4H58.8z"/>
		<path fill="#2B2620" d="M93.7,92.7l-6.4-8.5l-1.7,2v6.5h-4.5V71.4h4.5v9.5l7.5-9.5h5.6l-8.5,10l9,11.3
			C99.2,92.7,93.7,92.7,93.7,92.7z"/>
		<path fill="#2B2620" d="M114.8,92.7l-10.1-13.9v13.9h-4.5V71.4h4.7l9.9,13.4V71.4h4.5v21.3H114.8z"/>
		<path fill="#2B2620" d="M122.1,84.2V71.4h4.6V84c0,3,1.7,5,5,5s5-2,5-5V71.4h4.6v12.8c0,5.3-3.1,8.9-9.6,8.9
			C125.2,93.1,122.1,89.5,122.1,84.2z"/>
		<path fill="#2B2620" d="M144.2,92.7V71.4h8.4c6.7,0,11.3,4.2,11.3,10.7c0,6.4-4.6,10.6-11.3,10.6H144.2z M159.2,82.1
			c0-3.8-2.3-6.7-6.7-6.7h-3.9v13.3h3.9C156.8,88.7,159.2,85.7,159.2,82.1z"/>
		<path fill="#2B2620" d="M164.3,89.7l2.5-3.4c1.5,1.6,3.8,2.9,6.8,2.9c2.5,0,3.7-1.1,3.7-2.4c0-3.8-12.2-1.2-12.2-9.2
			c0-3.5,3.1-6.5,8.1-6.5c3.4,0,6.2,1,8.3,3l-2.5,3.3c-1.7-1.6-4-2.3-6.2-2.3c-1.9,0-3,0.9-3,2.1c0,3.4,12.2,1.1,12.2,9.1
			c0,3.9-2.8,6.8-8.5,6.8C169.3,93.1,166.3,91.7,164.3,89.7z"/>
		<path fill="#2B2620" d="M183.6,92.7V71.4h15.1v4h-10.5v4.5h10.3v4h-10.3v4.8h10.5v4C198.7,92.7,183.6,92.7,183.6,92.7z"/>
		<path fill="#2B2620" d="M215.6,92.7l-10.1-13.9v13.9H201V71.4h4.7l9.9,13.4V71.4h4.5v21.3H215.6z"/>
	</g>
</g>
<g>
	<path fill="#2B2620" d="M48.3,106.5l-1.8-2.8h-1.4v2.8h-0.9v-7.1h2.9c1.3,0,2.2,0.8,2.2,2.2c0,1.3-0.9,2-1.9,2.1l1.9,2.9
		L48.3,106.5L48.3,106.5z M48.4,101.5c0-0.8-0.6-1.4-1.4-1.4h-1.9v2.7H47C47.8,102.8,48.4,102.3,48.4,101.5z"/>
	<path fill="#2B2620" d="M53.7,106.5v-0.6c-0.4,0.5-1,0.7-1.7,0.7c-0.9,0-1.8-0.6-1.8-1.7c0-1.2,0.9-1.7,1.8-1.7
		c0.7,0,1.3,0.2,1.7,0.7V103c0-0.7-0.6-1.1-1.3-1.1c-0.6,0-1.1,0.2-1.6,0.7l-0.4-0.6c0.6-0.6,1.2-0.9,2.1-0.9c1.1,0,2,0.5,2,1.7v3.6
		h-0.8V106.5z M53.7,105.4v-1c-0.3-0.4-0.9-0.6-1.4-0.6c-0.8,0-1.3,0.5-1.3,1.1c0,0.7,0.5,1.1,1.3,1.1
		C52.9,106,53.4,105.8,53.7,105.4z M51.5,99.6c0-0.6,0.5-1.1,1-1.1c0.6,0,1,0.5,1,1.1s-0.5,1-1,1C51.9,100.6,51.5,100.2,51.5,99.6z
		 M53.1,99.6c0-0.4-0.3-0.6-0.6-0.6s-0.6,0.3-0.6,0.6c0,0.3,0.3,0.6,0.6,0.6C52.9,100.2,53.1,99.9,53.1,99.6z"/>
	<path fill="#2B2620" d="M59.9,106.5v-0.8c-0.4,0.5-1,0.9-1.7,0.9c-1.4,0-2.3-1-2.3-2.7s0.9-2.7,2.3-2.7c0.7,0,1.3,0.3,1.7,0.9v-2.8
		h0.8v7.1L59.9,106.5L59.9,106.5z M59.9,105.1v-2.3c-0.3-0.5-0.9-0.8-1.6-0.8c-1,0-1.7,0.9-1.7,2s0.6,2,1.7,2
		C59,105.9,59.6,105.5,59.9,105.1z"/>
	<path fill="#2B2620" d="M62.3,107.8l0.4-0.6c0.4,0.5,0.9,0.7,1.7,0.7c0.9,0,1.7-0.4,1.7-1.6v-0.7c-0.4,0.5-1,0.9-1.7,0.9
		c-1.3,0-2.3-1-2.3-2.7s0.9-2.7,2.3-2.7c0.7,0,1.3,0.3,1.7,0.9v-0.8h0.8v5c0,1.7-1.2,2.2-2.5,2.2C63.5,108.6,62.9,108.4,62.3,107.8z
		 M66,105v-2.3c-0.3-0.5-0.9-0.8-1.5-0.8c-1,0-1.7,0.8-1.7,2c0,1.1,0.6,2,1.7,2C65.1,105.8,65.7,105.4,66,105z"/>
	<path fill="#2B2620" d="M68.3,100c0-0.3,0.2-0.5,0.5-0.5s0.5,0.2,0.5,0.5s-0.2,0.5-0.5,0.5S68.3,100.3,68.3,100z M68.4,106.5v-5.2
		h0.8v5.2H68.4z"/>
	<path fill="#2B2620" d="M72.2,106.5l-2.2-5.2h0.9l1.7,4.2l1.7-4.2h0.9l-2.2,5.2H72.2z"/>
	<path fill="#2B2620" d="M75.8,103.9c0-1.5,1.1-2.7,2.5-2.7c1.6,0,2.5,1.2,2.5,2.8v0.2h-4.2c0.1,1,0.8,1.8,1.9,1.8
		c0.6,0,1.2-0.2,1.6-0.7l0.4,0.5c-0.5,0.5-1.2,0.8-2.1,0.8C76.9,106.6,75.8,105.5,75.8,103.9z M78.3,101.8c-1.1,0-1.6,0.9-1.7,1.7
		H80C80,102.8,79.5,101.8,78.3,101.8z"/>
	<path fill="#2B2620" d="M85.6,106.5v-3.4c0-0.9-0.5-1.2-1.2-1.2c-0.6,0-1.2,0.4-1.5,0.8v3.8h-0.8v-5.2h0.8v0.8
		c0.4-0.4,1.1-0.9,1.8-0.9c1.1,0,1.6,0.5,1.6,1.7v3.6C86.3,106.5,85.6,106.5,85.6,106.5z"/>
	<path fill="#2B2620" d="M91.8,106.5v-0.8c-0.4,0.5-1,0.9-1.7,0.9c-1.4,0-2.3-1-2.3-2.7s0.9-2.7,2.3-2.7c0.7,0,1.3,0.3,1.7,0.9v-2.8
		h0.8v7.1L91.8,106.5L91.8,106.5z M91.8,105.1v-2.3c-0.3-0.5-0.9-0.8-1.6-0.8c-1,0-1.7,0.9-1.7,2s0.6,2,1.7,2
		C90.9,105.9,91.5,105.5,91.8,105.1z"/>
	<path fill="#2B2620" d="M93.9,103.9c0-1.5,1.1-2.7,2.5-2.7c1.6,0,2.5,1.2,2.5,2.8v0.2h-4.2c0.1,1,0.8,1.8,1.9,1.8
		c0.6,0,1.2-0.2,1.6-0.7l0.4,0.5c-0.5,0.5-1.2,0.8-2.1,0.8C95,106.6,93.9,105.5,93.9,103.9z M96.4,101.8c-1.1,0-1.6,0.9-1.7,1.7h3.4
		C98.1,102.8,97.6,101.8,96.4,101.8z"/>
	<path fill="#2B2620" d="M102.8,100c0-0.3,0.2-0.5,0.5-0.5s0.5,0.2,0.5,0.5s-0.2,0.5-0.5,0.5C103.1,100.5,102.8,100.3,102.8,100z
		 M103,106.5v-5.2h0.8v5.2H103z"/>
	<path fill="#2B2620" d="M108.9,106.5v-3.4c0-0.9-0.5-1.2-1.2-1.2c-0.6,0-1.2,0.4-1.5,0.8v3.8h-0.8v-5.2h0.8v0.8
		c0.4-0.4,1.1-0.9,1.8-0.9c1.1,0,1.6,0.5,1.6,1.7v3.6C109.6,106.5,108.9,106.5,108.9,106.5z"/>
	<path fill="#2B2620" d="M111.3,107.8l0.4-0.6c0.4,0.5,0.9,0.7,1.7,0.7c0.9,0,1.7-0.4,1.7-1.6v-0.7c-0.4,0.5-1,0.9-1.7,0.9
		c-1.3,0-2.3-1-2.3-2.7s0.9-2.7,2.3-2.7c0.7,0,1.3,0.3,1.7,0.9v-0.8h0.8v5c0,1.7-1.2,2.2-2.5,2.2
		C112.5,108.6,111.9,108.4,111.3,107.8z M115,105v-2.3c-0.3-0.5-0.9-0.8-1.5-0.8c-1,0-1.7,0.8-1.7,2c0,1.1,0.6,2,1.7,2
		C114.1,105.8,114.8,105.4,115,105z"/>
	<path fill="#2B2620" d="M117.2,103.9c0-1.5,1.1-2.7,2.5-2.7c1.6,0,2.5,1.2,2.5,2.8v0.2H118c0.1,1,0.8,1.8,1.9,1.8
		c0.6,0,1.2-0.2,1.6-0.7l0.4,0.5c-0.5,0.5-1.2,0.8-2.1,0.8C118.3,106.6,117.2,105.5,117.2,103.9z M119.7,101.8
		c-1.1,0-1.6,0.9-1.7,1.7h3.4C121.4,102.8,120.9,101.8,119.7,101.8z"/>
	<path fill="#2B2620" d="M127,106.5v-3.4c0-0.9-0.5-1.2-1.2-1.2c-0.6,0-1.2,0.4-1.5,0.8v3.8h-0.8v-5.2h0.8v0.8
		c0.4-0.4,1.1-0.9,1.8-0.9c1.1,0,1.6,0.5,1.6,1.7v3.6C127.7,106.5,127,106.5,127,106.5z"/>
	<path fill="#2B2620" d="M129.2,100c0-0.3,0.2-0.5,0.5-0.5s0.5,0.2,0.5,0.5s-0.2,0.5-0.5,0.5C129.5,100.5,129.2,100.3,129.2,100z
		 M129.4,106.5v-5.2h0.8v5.2H129.4z"/>
	<path fill="#2B2620" d="M131.7,106.5l0.5-0.7c-0.5-0.5-0.7-1.2-0.7-1.9c0-1.5,1-2.7,2.6-2.7c0.6,0,1.1,0.2,1.5,0.4l0.2-0.3h0.6
		l-0.5,0.6c0.5,0.5,0.8,1.2,0.8,2c0,1.5-1,2.7-2.6,2.7c-0.6,0-1.1-0.2-1.5-0.5l-0.3,0.4H131.7z M132.7,105.2l2.3-3
		c-0.3-0.2-0.6-0.3-1-0.3c-1.1,0-1.7,0.9-1.7,2C132.3,104.3,132.5,104.8,132.7,105.2z M135.8,103.9c0-0.5-0.1-1-0.4-1.3l-2.4,3
		c0.3,0.2,0.6,0.4,1,0.4C135.2,105.9,135.8,104.9,135.8,103.9z"/>
	<path fill="#2B2620" d="M137.9,106.5v-5.2h0.8v0.8c0.4-0.5,1-0.9,1.7-0.9v0.8c-0.1,0-0.2,0-0.3,0c-0.5,0-1.2,0.4-1.4,0.8v3.7
		C138.7,106.5,137.9,106.5,137.9,106.5z"/>
	<path fill="#2B2620" d="M141.2,103.9c0-1.5,1.1-2.7,2.5-2.7c1.6,0,2.5,1.2,2.5,2.8v0.2H142c0.1,1,0.8,1.8,1.9,1.8
		c0.6,0,1.2-0.2,1.6-0.7l0.4,0.5c-0.5,0.5-1.2,0.8-2.1,0.8C142.3,106.6,141.2,105.5,141.2,103.9z M143.7,101.8
		c-1.1,0-1.6,0.9-1.7,1.7h3.4C145.4,102.8,144.9,101.8,143.7,101.8z"/>
	<path fill="#2B2620" d="M147.5,106.5v-5.2h0.8v0.8c0.4-0.5,1-0.9,1.7-0.9v0.8c-0.1,0-0.2,0-0.3,0c-0.5,0-1.2,0.4-1.4,0.8v3.7
		C148.3,106.5,147.5,106.5,147.5,106.5z"/>
	<path fill="#2B2620" d="M159.9,106.5v-5.9l-2.4,5.9h-0.4l-2.4-5.9v5.9h-0.9v-7.1h1.3l2.2,5.4l2.2-5.4h1.3v7.1H159.9z"/>
	<path fill="#2B2620" d="M166.6,106.5l-1.8-2.8h-1.4v2.8h-0.9v-7.1h2.9c1.3,0,2.2,0.8,2.2,2.2c0,1.3-0.9,2-1.9,2.1l1.9,2.9
		L166.6,106.5L166.6,106.5z M166.7,101.5c0-0.8-0.6-1.4-1.4-1.4h-1.9v2.7h1.9C166.1,102.8,166.7,102.3,166.7,101.5z"/>
	<path fill="#2B2620" d="M169,106.5v-7.1h0.9v7.1H169z"/>
	<path fill="#2B2620" d="M171.6,106.5v-7.1h4.7v0.8h-3.8v2.3h3.7v0.8h-3.7v3.3h-0.9V106.5z"/>
</g>
<g>
	<polygon fill="#B81128" points="107.2,61.2 145.3,41.7 145.3,35.2 107.2,54.8 	"/>
	<polygon fill="#B81128" points="107.2,45 107,44.9 76.4,30.5 76.4,36.9 107.2,51.4 145.3,31.8 145.3,25.4 	"/>
	<polygon fill="#B81128" points="114.3,28.1 91.4,17.2 107.2,9.1 107.2,1.4 76.4,17.2 107.2,31.8 	"/>
</g>
<g>
	<polygon fill="#B81128" points="110.9,16.5 110.9,16.5 112.1,15.9 	"/>
	<polygon fill="#B81128" points="118,26.3 124.3,22.9 114.2,18.1 107.9,21.4 	"/>
	<polygon fill="#B81128" points="114.7,8.4 98.3,16.9 104.5,19.9 110.9,16.5 110.9,16.5 112.1,15.9 113.6,15.1 113.6,15.1 
		114.4,14.7 131.3,22.6 107.2,35.2 76.4,20.7 76.4,27.1 107.2,41.6 129.6,30.1 144.6,22.6 	"/>
	<polygon fill="#B81128" points="112.1,15.9 113.6,15.1 113.6,15.1 	"/>
</g>
</svg>
